<svg width="500" height="433" viewBox="0 0 500 433" fill="none" xmlns="http://www.w3.org/2000/svg">
<g clip-path="url(#clip0_101_3)">
<path d="M384.567 165.736C372.989 161.332 383.428 156.179 390.695 154.123C396.574 152.46 411.296 149.748 405.321 139.713C399.062 129.202 393.067 142.184 388.088 143.65C376.961 146.926 388.54 132.968 391.304 129.246C395.091 124.147 403.056 113.729 393.22 111.993C385.265 110.589 377.026 121.673 373.726 127.197C371.373 131.136 365.588 149.582 359.567 145.492C355.009 142.396 359.724 123.927 348.843 137.128C344.418 142.496 345.132 151.121 343.137 157.261C340.215 166.255 338.984 169.982 331.001 167.673C326.864 166.476 326.73 161.284 321.624 164.791C318.995 166.596 318.216 174.907 318.239 177.792C318.444 204.302 329.043 222.056 334.043 224.345C340.812 227.444 353.391 222.968 359.179 219.643C362.057 217.99 367.306 215.258 366.937 211.068C366.522 206.366 359.261 207.041 358.992 204.28C358.228 196.447 372.637 203.93 376.628 202.813C381.795 201.367 390.355 192.135 384.933 187.251C384.376 186.749 361.854 185.119 374.738 177.948C381.871 173.978 389.521 184.993 396.403 177.173C406.307 165.918 388.908 167.387 384.567 165.736Z" fill="url(#paint0_linear_101_3)"/>
<path d="M382.646 169.906C377.671 167.806 372.53 165.91 367.113 165.449C370.924 160.688 374.917 155.972 377.816 150.686C378.634 149.195 376.197 148.165 375.385 149.646C375.031 150.291 374.638 150.917 374.255 151.548C373.837 149.932 374.338 147.519 374.489 146.23C374.88 142.901 376.134 139.91 377.443 136.857C378.114 135.293 375.684 134.251 375.012 135.817C373.313 139.778 371.973 143.562 371.674 147.891C371.527 150.019 371.4 152.325 372.635 154.086C368.538 160.166 363.435 165.765 359.163 171.663C357.337 168.769 355.996 165.756 355.379 162.328C354.706 158.595 355.162 154.799 354.775 151.041C354.601 149.348 351.976 149.674 352.151 151.37C352.616 155.889 352.087 160.328 353.223 164.785C354.079 168.143 355.615 171.112 357.522 173.98C352.611 181.079 348.077 188.46 344.35 196.253C343.112 198.841 341.982 201.48 340.887 204.135C338.421 200.449 336.378 196.604 334.958 192.367C334.168 190.011 333.292 187.515 332.976 185.048C332.737 183.179 332.934 181.415 332.198 179.642C331.545 178.07 329.09 179.051 329.744 180.626C330.645 182.797 330.341 185.628 330.912 187.95C331.464 190.191 332.148 192.417 332.926 194.59C334.518 199.036 336.861 203.071 339.564 206.924C339.604 206.98 339.655 207.003 339.697 207.05C337.85 211.637 336.045 216.243 333.991 220.73C333.827 220.857 333.681 221.02 333.585 221.263C333.387 221.767 332.998 222.461 332.868 223.072C329.197 232.339 325.499 241.6 321.946 250.913C321.341 252.498 323.769 253.547 324.377 251.953C327.917 242.673 331.602 233.443 335.261 224.209C335.284 224.169 335.315 224.146 335.336 224.102C336.51 221.683 337.587 219.218 338.626 216.734C343.436 217.957 348.783 216.552 353.269 214.749C354.85 214.114 353.867 211.659 352.285 212.295C348.384 213.862 343.869 215.08 339.654 214.249C341.967 208.569 344.146 202.824 346.781 197.292C347.83 195.09 348.952 192.928 350.123 190.794C350.21 190.856 350.28 190.928 350.393 190.973C356.951 193.635 364.028 194.701 371.048 193.598C372.725 193.334 372.406 190.709 370.719 190.974C364.141 192.007 357.583 191.038 351.433 188.542C351.42 188.537 351.409 188.54 351.397 188.535C355.009 182.233 359.079 176.194 363.354 170.324C364.082 169.325 364.84 168.338 365.609 167.354C365.76 167.718 366.067 168.01 366.596 168.052C371.852 168.472 376.784 170.302 381.605 172.337C383.173 172.999 384.216 170.569 382.646 169.906Z" fill="#F46D6D"/>
<path d="M313.533 281.509C320.283 274.271 326.051 266.561 333.201 259.85C327.022 250.061 324.603 231.693 326.175 229.773C329.706 225.459 334.162 232.181 335.041 235.451C336.632 241.369 335.776 253.751 334.744 258.44C335.593 257.683 336.456 256.936 337.35 256.211C339.311 254.62 341.272 253.02 343.233 251.421C341.407 247.954 337.143 240.767 339.517 229.071C339.915 227.11 340.624 224.537 342.715 223.777C345.617 222.722 345.831 225.975 345.909 228.034C346.043 231.564 345.669 243.681 345.813 249.32C349.738 246.118 353.668 242.918 357.612 239.74C355.398 232.482 352.751 223.673 356.001 216.299C358.126 211.476 361.923 215.496 362.767 218.685C364.279 224.397 363.162 231.093 361.128 236.923C362.993 235.432 364.859 233.94 366.734 232.467C367.069 232.204 367.41 231.947 367.747 231.686C366.353 228.215 364.64 225.018 364.505 221.147C364.371 217.335 366.034 213.863 368.485 211.032C369.565 209.784 370.704 208.119 372.512 207.908C375.049 207.612 373.985 210.325 373.508 211.98C372.494 215.501 371.662 219.146 371.039 222.741C370.695 224.726 370.311 226.576 369.806 228.463C369.676 228.95 369.597 229.627 369.518 230.32C372.208 228.263 374.942 226.247 377.72 224.284C377.547 217.877 377.383 210.128 381.679 204.859C384.497 201.403 386.69 205.536 386.661 208.326C386.616 212.654 384.798 217.143 382.384 221.059C383.611 220.231 384.843 219.411 386.083 218.604C388.188 211.396 390.692 202.436 397.403 198.135C401.673 195.399 402.594 200.749 401.581 203.798C400.58 206.808 398.776 209.621 396.567 212.144C397.155 211.8 397.741 211.449 398.331 211.11C399.717 210.316 401.123 209.58 402.543 208.89C403.494 202.534 404.672 194.823 409.847 190.365C413.225 187.454 414.662 191.906 414.146 194.649C413.327 199.003 410.65 203.198 407.494 206.681C409.714 205.765 411.96 204.923 414.222 204.124C415.788 199.116 417.717 193.073 422.441 190.132C425.54 188.203 426.143 191.986 425.38 194.14C424.273 197.266 421.926 200.088 419.246 202.398C421.736 201.562 424.234 200.733 426.725 199.866C428.167 197.99 429.83 196.123 431.313 194.532C433.066 192.652 435.305 190.83 438.058 191.065C441.685 191.375 442.397 193.94 440.363 196.769C439.434 198.062 438.192 198.917 436.795 199.532C438.205 199.796 439.516 200.333 440.388 201.148C442.774 203.378 440.588 205.535 437.998 206.031C435.115 206.583 432.145 205.496 429.349 204.949C427.278 204.544 425.087 204.748 423.012 204.557C421.359 205.114 419.708 205.668 418.062 206.232C422.356 205.963 427.07 206.475 430.617 208.574C432.584 209.738 434.547 213.027 430.931 213.534C425.129 214.347 419.498 210.533 414.96 207.621L414.908 207.34C410.282 208.996 405.722 210.825 401.307 213.167C402.789 213.165 404.243 213.315 405.626 213.664C408.147 214.3 411.35 217.255 407.568 218.974C402.711 221.182 397.018 220.119 391.917 218.728C387.326 221.602 382.813 224.627 378.4 227.779C383.214 226.09 388.692 225.165 393.406 226.353C396.109 227.035 399.543 230.204 395.489 232.047C388.983 235.004 381.076 232.49 374.76 230.653L374.676 230.488C372.629 232.004 370.6 233.541 368.605 235.108C367.64 235.866 366.691 236.645 365.734 237.412C372.32 234.938 379.769 233.436 386.077 234.768C389.688 235.531 394.161 239.534 388.6 242.166C379.71 246.374 369.216 243.495 360.805 241.392C358.066 243.636 355.333 245.888 352.598 248.137C359.129 247.908 372.648 246.627 377.043 246.573C379.099 246.55 383.919 247.037 382.763 250.346C382.121 252.179 378.402 253.734 376.613 254.159C372.625 255.109 357.957 253.748 348.369 251.591C346.418 253.171 344.461 254.743 342.478 256.287C341.744 256.859 341.029 257.441 340.324 258.029C349.966 256.842 368.929 255.785 373.494 257.289C375.816 258.054 379.418 259.896 378.841 262.856C378.244 265.921 373.551 265.743 371.143 266.238C365.597 267.377 348.033 264.393 344.867 263.376C342.417 262.588 340.041 261.241 337.676 260.334C336.11 261.749 334.604 263.2 333.144 264.681C340.727 266.245 358.069 268.607 363.494 269.812C365.961 270.362 371.594 272.3 369.28 275.936C367.996 277.949 363.108 278.766 360.846 278.772C356.06 278.788 340.336 273.604 329.454 268.562C324.955 273.452 320.703 278.558 316.019 283.58C314.603 285.096 312.112 283.033 313.533 281.509Z" fill="url(#paint1_linear_101_3)"/>
<path d="M121.043 157.159C132.621 152.755 122.183 147.602 114.915 145.546C109.036 143.883 94.3137 141.171 100.289 131.136C106.548 120.625 112.543 133.607 117.522 135.073C128.649 138.349 117.07 124.391 114.306 120.669C110.519 115.57 102.554 105.152 112.39 103.416C120.345 102.012 128.584 113.096 131.884 118.62C134.236 122.558 140.021 141.004 146.043 136.915C150.601 133.819 145.886 115.35 156.767 128.55C161.192 133.918 160.478 142.543 162.473 148.683C165.395 157.677 166.626 161.404 174.609 159.095C178.746 157.899 178.88 152.706 183.986 156.213C186.615 158.019 187.394 166.329 187.371 169.214C187.166 195.724 176.567 213.478 171.567 215.767C164.798 218.866 152.219 214.39 146.431 211.065C143.553 209.412 138.304 206.68 138.673 202.49C139.088 197.788 146.349 198.464 146.618 195.702C147.382 187.869 132.973 195.352 128.982 194.235C123.815 192.789 115.256 183.557 120.677 178.673C121.234 178.171 143.756 176.541 130.872 169.37C123.739 165.4 116.089 176.415 109.207 168.595C99.3027 157.34 116.701 158.81 121.043 157.159Z" fill="url(#paint2_linear_101_3)"/>
<path d="M122.963 161.329C127.938 159.229 133.079 157.333 138.496 156.872C134.685 152.111 130.692 147.395 127.793 142.109C126.975 140.618 129.412 139.588 130.224 141.069C130.578 141.714 130.971 142.34 131.354 142.971C131.772 141.355 131.271 138.942 131.119 137.653C130.728 134.324 129.474 131.333 128.165 128.28C127.494 126.716 129.924 125.674 130.596 127.24C132.295 131.201 133.635 134.985 133.934 139.314C134.081 141.442 134.208 143.748 132.973 145.509C137.07 151.589 142.173 157.188 146.445 163.086C148.271 160.191 149.612 157.179 150.229 153.751C150.902 150.017 150.446 146.222 150.833 142.464C151.007 140.771 153.632 141.097 153.457 142.793C152.992 147.312 153.521 151.751 152.385 156.208C151.529 159.567 149.993 162.535 148.086 165.403C152.997 172.502 157.531 179.883 161.258 187.676C162.496 190.264 163.626 192.903 164.721 195.558C167.187 191.872 169.23 188.027 170.65 183.79C171.44 181.435 172.316 178.938 172.632 176.471C172.871 174.602 172.674 172.838 173.41 171.065C174.063 169.493 176.518 170.474 175.865 172.049C174.964 174.22 175.268 177.052 174.697 179.373C174.145 181.614 173.462 183.84 172.684 186.013C171.092 190.459 168.749 194.494 166.046 198.347C166.006 198.404 165.955 198.426 165.913 198.473C167.76 203.06 169.565 207.666 171.619 212.153C171.782 212.28 171.929 212.443 172.025 212.686C172.223 213.19 172.612 213.884 172.742 214.495C176.413 223.762 180.111 233.023 183.664 242.336C184.269 243.922 181.841 244.97 181.233 243.376C177.693 234.096 174.008 224.867 170.349 215.632C170.326 215.593 170.295 215.569 170.274 215.525C169.1 213.106 168.023 210.641 166.984 208.157C162.174 209.38 156.827 207.975 152.341 206.172C150.76 205.537 151.743 203.082 153.324 203.718C157.225 205.285 161.74 206.503 165.955 205.672C163.642 199.992 161.463 194.247 158.828 188.715C157.78 186.514 156.657 184.352 155.486 182.217C155.399 182.279 155.329 182.351 155.216 182.396C148.658 185.058 141.581 186.124 134.561 185.021C132.884 184.757 133.203 182.132 134.89 182.397C141.468 183.43 148.026 182.461 154.176 179.965C154.189 179.96 154.2 179.963 154.212 179.958C150.6 173.656 146.53 167.617 142.255 161.746C141.527 160.747 140.769 159.76 140 158.776C139.848 159.14 139.542 159.432 139.013 159.474C133.757 159.893 128.825 161.724 124.004 163.759C122.437 164.421 121.393 161.992 122.963 161.329Z" fill="#F46D6D"/>
<path d="M192.076 272.932C185.326 265.694 179.558 257.984 172.408 251.273C178.587 241.484 181.006 223.116 179.434 221.196C175.903 216.882 171.447 223.604 170.568 226.874C168.977 232.793 169.833 245.174 170.865 249.863C170.016 249.106 169.153 248.359 168.259 247.634C166.297 246.043 164.337 244.443 162.376 242.844C164.202 239.377 168.466 232.19 166.092 220.494C165.694 218.533 164.985 215.96 162.894 215.2C159.992 214.145 159.778 217.398 159.7 219.457C159.566 222.987 159.94 235.104 159.796 240.743C155.871 237.541 151.941 234.341 147.997 231.163C150.211 223.905 152.858 215.096 149.608 207.722C147.483 202.899 143.686 206.918 142.842 210.107C141.331 215.819 142.448 222.515 144.482 228.345C142.616 226.854 140.751 225.362 138.876 223.889C138.541 223.626 138.2 223.369 137.863 223.108C139.257 219.637 140.97 216.44 141.105 212.569C141.239 208.757 139.576 205.285 137.125 202.454C136.045 201.206 134.906 199.541 133.098 199.33C130.561 199.034 131.625 201.747 132.102 203.402C133.116 206.923 133.948 210.568 134.571 214.163C134.915 216.148 135.299 217.998 135.804 219.885C135.934 220.372 136.013 221.049 136.092 221.742C133.402 219.685 130.668 217.669 127.89 215.706C128.063 209.299 128.227 201.55 123.931 196.281C121.113 192.825 118.92 196.957 118.949 199.748C118.994 204.076 120.812 208.565 123.226 212.481C121.999 211.653 120.767 210.833 119.526 210.026C117.421 202.818 114.917 193.858 108.206 189.557C103.936 186.821 103.015 192.171 104.028 195.22C105.029 198.23 106.833 201.043 109.042 203.566C108.454 203.222 107.868 202.871 107.278 202.532C105.892 201.737 104.486 201.002 103.066 200.311C102.115 193.955 100.937 186.244 95.7615 181.786C92.3835 178.875 90.9465 183.327 91.4625 186.07C92.2815 190.424 94.9585 194.619 98.1145 198.102C95.8945 197.185 93.6485 196.344 91.3865 195.545C89.8205 190.537 87.8915 184.494 83.1675 181.554C80.0675 179.625 79.4655 183.408 80.2285 185.562C81.3355 188.688 83.6825 191.51 86.3625 193.82C83.8715 192.984 81.3745 192.155 78.8835 191.288C77.4415 189.412 75.7785 187.545 74.2955 185.954C72.5425 184.074 70.3035 182.252 67.5505 182.487C63.9235 182.797 63.2115 185.362 65.2455 188.191C66.1745 189.484 67.4165 190.339 68.8135 190.954C67.4035 191.218 66.0925 191.755 65.2205 192.57C62.8345 194.8 65.0205 196.957 67.6105 197.453C70.4935 198.005 73.4635 196.918 76.2595 196.371C78.3305 195.966 80.5215 196.17 82.5965 195.98C84.2495 196.537 85.9005 197.091 87.5465 197.655C83.2535 197.386 78.5385 197.897 74.9915 199.997C73.0245 201.161 71.0615 204.45 74.6775 204.957C80.4785 205.77 86.1105 201.956 90.6485 199.044L90.6995 198.763C95.3255 200.419 99.8855 202.248 104.301 204.59C102.819 204.588 101.365 204.738 99.9815 205.086C97.4605 205.722 94.2575 208.677 98.0395 210.396C102.897 212.604 108.59 211.541 113.691 210.15C118.282 213.024 122.795 216.049 127.208 219.201C122.394 217.512 116.916 216.587 112.202 217.776C109.499 218.457 106.065 221.626 110.119 223.47C116.625 226.427 124.532 223.913 130.848 222.076L130.932 221.911C132.979 223.427 135.008 224.964 137.003 226.531C137.968 227.289 138.917 228.068 139.874 228.835C133.288 226.36 125.839 224.859 119.531 226.191C115.919 226.954 111.446 230.957 117.008 233.589C125.898 237.797 136.392 234.917 144.803 232.815C147.542 235.059 150.275 237.311 153.01 239.56C146.479 239.331 132.96 238.05 128.565 237.996C126.51 237.973 121.689 238.46 122.845 241.769C123.487 243.602 127.206 245.157 128.995 245.582C132.983 246.533 147.651 245.172 157.239 243.014C159.19 244.594 161.147 246.166 163.13 247.71C163.864 248.282 164.58 248.864 165.285 249.452C155.643 248.265 136.68 247.208 132.115 248.712C129.793 249.477 126.191 251.319 126.768 254.279C127.365 257.344 132.059 257.166 134.466 257.661C140.012 258.8 157.576 255.816 160.742 254.799C163.192 254.011 165.568 252.664 167.933 251.757C169.499 253.172 171.005 254.623 172.465 256.104C164.882 257.668 147.54 260.03 142.115 261.235C139.648 261.785 134.015 263.723 136.329 267.359C137.613 269.372 142.501 270.189 144.763 270.195C149.549 270.211 165.273 265.027 176.154 259.985C180.653 264.875 184.905 269.981 189.589 275.003C191.006 276.519 193.497 274.456 192.076 272.932Z" fill="url(#paint3_linear_101_3)"/>
<path d="M345.712 272.886C345.712 291.21 335.252 307.815 318.303 319.948C316.896 320.949 315.457 321.934 313.956 322.872C313.08 323.419 312.205 323.951 311.298 324.467C311.017 324.655 310.735 324.811 310.438 324.983C308.781 325.937 307.092 326.844 305.341 327.704C304.028 328.361 302.683 328.986 301.323 329.58C299.322 330.487 297.274 331.331 295.178 332.113C291.957 333.348 288.611 334.443 285.156 335.381C284.812 335.49 284.452 335.584 284.108 335.678C280.277 336.71 276.322 337.57 272.256 338.227C269.16 338.759 265.986 339.165 262.781 339.478C260.702 339.666 258.606 339.822 256.496 339.9C256.199 339.916 255.918 339.931 255.62 339.947C253.759 340.041 251.883 340.072 249.991 340.072H248.865C196.534 339.65 154.287 309.74 154.287 272.887C154.287 235.8 197.143 205.733 249.991 205.733C302.855 205.732 345.712 235.799 345.712 272.886Z" fill="url(#paint4_linear_101_3)"/>
<path d="M313.11 272.892C313.11 284.975 306.213 295.924 295.037 303.924C294.109 304.584 293.161 305.233 292.171 305.852C291.594 306.213 291.016 306.563 290.418 306.904C290.232 307.028 290.047 307.131 289.851 307.244C288.758 307.873 287.645 308.471 286.49 309.038C285.624 309.471 284.737 309.883 283.84 310.275C282.52 310.873 281.17 311.43 279.788 311.945C277.664 312.759 275.458 313.481 273.179 314.1C272.952 314.172 272.715 314.234 272.488 314.296C269.962 314.977 267.354 315.543 264.673 315.977C262.632 316.328 260.539 316.596 258.425 316.802C257.054 316.926 255.672 317.029 254.28 317.08C254.084 317.09 253.899 317.101 253.703 317.111C252.476 317.173 251.239 317.193 249.991 317.193H249.249C214.743 316.915 186.886 297.192 186.886 272.893C186.886 248.438 215.145 228.613 249.991 228.613C284.852 228.612 313.11 248.437 313.11 272.892Z" fill="url(#paint5_linear_101_3)"/>
<path d="M266.322 260.311L293.514 279.424L297.309 278.932L270.817 260.311H266.322Z" fill="#E0E7EE"/>
<path d="M263.84 283.13L291.032 302.243L294.827 301.75L268.335 283.13H263.84Z" fill="#E0E7EE"/>
<path d="M294.254 261.458L291.429 274.696L290.913 277.119L267.005 260.314L270.387 245.272L265.459 241.148L249.252 317.192H249.994C251.241 317.192 252.479 317.171 253.706 317.11C253.902 317.1 254.088 317.089 254.283 317.079L255.963 309.573L264.675 315.975C267.356 315.542 269.964 314.975 272.49 314.294C272.717 314.232 272.954 314.17 273.181 314.098L257.428 303.025L260.727 288.354L284.759 305.994L283.841 310.273C284.738 309.881 285.625 309.469 286.491 309.036C287.646 308.469 289.326 307.531 290.419 306.902L299.182 265.581L294.254 261.458ZM286.305 298.758L262.201 281.809L265.541 266.839L289.377 284.345L286.305 298.758Z" fill="white"/>
<path d="M303.131 265.582L295.038 303.924C294.11 304.584 293.162 305.233 292.172 305.852C291.595 306.213 291.017 306.563 290.419 306.904L299.182 265.583H303.131V265.582Z" fill="#E0E7EE"/>
<path d="M299.178 265.58L294.254 261.456H298.205L303.129 265.58H299.178Z" fill="#E0E7EE"/>
<path d="M270.383 245.267H274.335L269.411 241.143H265.459L270.383 245.267Z" fill="#E0E7EE"/>
<path d="M270.383 245.267H274.335L270.962 260.311H267.01L270.383 245.267Z" fill="#E0E7EE"/>
<mask id="mask0_101_3" style="mask-type:luminance" maskUnits="userSpaceOnUse" x="185" y="175" width="133" height="143">
<path d="M314.718 271.431C311.851 283.575 307.687 295.222 296.295 303.486C295.349 304.168 294.382 304.838 293.373 305.477C292.784 305.85 292.196 306.212 291.586 306.563C291.397 306.691 291.208 306.797 291.008 306.914C289.894 307.564 288.759 308.181 287.582 308.767C286.699 309.214 285.795 309.64 284.881 310.045C283.536 310.663 282.159 311.238 280.751 311.77C278.586 312.611 276.337 313.357 274.015 313.996C273.784 314.071 273.542 314.134 273.311 314.198C270.736 314.901 268.077 315.487 265.345 315.934C263.264 316.296 261.131 316.573 258.976 316.786C257.578 316.914 256.17 317.02 254.751 317.074C254.551 317.085 254.362 317.095 254.162 317.106C252.911 317.17 251.65 317.191 250.379 317.191H249.622C214.447 316.904 187.473 296.49 186.051 271.43C182.888 215.667 220.441 175.548 255.963 175.548C291.496 175.549 328.294 213.923 314.718 271.431Z" fill="white"/>
</mask>
<g mask="url(#mask0_101_3)">
<path d="M269.973 208.163C268.336 202.846 264.973 198.567 262.36 193.74C261.687 192.497 260.865 191.312 260.257 190.028C260.016 189.519 258.747 187.037 257.441 184.491C255.623 180.949 251.735 179.41 248.26 180.858C246.17 181.729 244.526 183.564 243.772 185.885C242.553 189.639 240.1 194.585 238.73 196.171C236.185 199.117 233.092 201.937 231.202 205.446C230.108 207.478 230.097 209.749 229.481 211.933C230.113 210.039 232.299 208.558 233.788 207.459C234.011 209.109 233.148 211.569 232.977 213.267C232.694 216.079 233.109 218.684 234.029 221.316C236.085 227.196 240.291 231.211 243.674 236.195C244.47 237.367 245.003 238.639 245.887 239.756C246.195 240.145 246.748 241.153 247.203 241.141C247.841 241.124 249.454 239.024 249.889 238.603C254.134 234.503 259.527 232.057 262.633 226.733C264.718 223.16 265.311 219.165 266.702 215.358C267.443 217.499 267.13 219.925 267.698 222.095C269.596 217.537 271.476 213.046 269.973 208.163Z" fill="#323BB4"/>
<path d="M278.653 288.348C278.652 288.346 278.65 288.344 278.649 288.342C277.811 287.158 277.006 286.124 276.271 285.241C274.568 282.621 273.702 279.982 274.163 277.313L250.814 277.179L239.691 275.616C239.831 276.116 239.963 276.617 240.1 277.117H240.086C240.086 277.117 239.22 283.031 244.57 296.062C251.613 331.644 251.48 368.333 246.017 407.126L253.682 407.363C263.388 365.329 263.907 327.794 260.673 292.428L261.115 292.328C282.436 314.833 274.203 337.399 261.264 362.643L267.326 367.603C299.127 328.572 287.295 300.569 278.653 288.348Z" fill="url(#paint6_linear_101_3)"/>
<path d="M265.764 216.257C264.266 217.357 264.215 219.321 264.466 220.849C264.638 221.895 264.995 222.893 265.466 223.842C267.038 227.009 272.87 238.419 277.439 242.942C279.447 244.93 282.529 245.307 284.956 243.859C290.329 240.655 299.315 235.059 301.732 232.089C301.406 231.66 301.522 231.795 301.082 231.242C300.642 230.688 299.725 229.404 299.123 228.751C295.732 231.474 282.589 233.874 282.589 233.874C282.589 233.874 274.879 222.33 273.26 217.759C272.296 215.205 269.57 213.463 265.764 216.257Z" fill="url(#paint7_linear_101_3)"/>
<path d="M301.73 232.077C306.158 229.703 309.769 226.8 310.78 221.581C310.957 220.665 309.244 219.621 307.864 220.564C306.484 221.507 304.456 223.801 303.712 225.632C303.521 224.952 303.85 223.744 303.625 223.135C303.4 222.526 303.254 221.64 302.134 222.618C301.013 223.596 299.592 226.875 299.172 228.695C299.983 229.877 300.895 230.911 301.73 232.077Z" fill="#FAB9B5"/>
<path d="M250.958 215.528C252.341 216.77 252.198 218.729 251.799 220.226C251.525 221.25 251.072 222.208 250.509 223.107C248.633 226.104 241.708 236.886 236.717 240.939C234.523 242.721 231.419 242.792 229.146 241.113C224.113 237.397 215.721 230.945 213.608 227.752C213.975 227.357 213.846 227.48 214.338 226.973C214.83 226.465 215.869 225.278 216.533 224.686C219.64 227.729 232.484 231.409 232.484 231.409C232.484 231.409 241.291 220.678 243.351 216.289C244.56 213.839 247.444 212.374 250.958 215.528Z" fill="url(#paint8_linear_101_3)"/>
<path d="M213.612 227.738C209.438 224.941 206.13 221.697 205.637 216.404C205.55 215.475 207.358 214.605 208.639 215.678C209.92 216.752 211.712 219.234 212.273 221.13C212.53 220.472 212.322 219.237 212.605 218.653C212.889 218.069 213.121 217.202 214.14 218.285C215.159 219.368 216.251 222.771 216.49 224.623C215.567 225.72 214.558 226.66 213.612 227.738Z" fill="#FAB9B5"/>
<path d="M274.912 279.476C272.09 281.397 268.978 282.578 265.657 283.186C256.667 284.833 246.297 282.292 237.033 278.664C237.033 278.664 238.622 272.887 241.031 267.61C243.759 261.578 247.013 255.704 246.68 248.914C246.525 245.749 245.516 242.453 244.339 239.564C243.372 237.219 243.03 234.83 243.436 232.315C243.735 230.447 244.315 228.623 244.687 226.773C245.271 223.644 249.115 214.213 249.115 214.213L251.23 215.221L253.475 216.28C253.922 216.228 254.901 215.92 255.115 215.486C255.148 215.428 255.165 215.37 255.169 215.296L255.101 213.973L262.108 214.066L262.217 215.168C262.31 215.988 262.175 216.619 263.048 216.662C263.728 216.695 264.569 216.485 265.368 216.213C266.68 215.759 267.882 215.136 268.044 215.144C268.088 215.146 272.972 232.478 272.162 236.871C271.228 241.984 268.611 245.768 268.081 251.108C267.912 252.745 268.226 255.384 268.758 256.937C271.987 266.642 274.912 279.476 274.912 279.476Z" fill="url(#paint9_linear_101_3)"/>
<path d="M258.431 228.545C258.431 228.545 250.711 228.787 251.231 215.22L253.476 216.279C253.923 216.227 254.902 215.919 255.116 215.485C255.149 215.427 255.166 215.369 255.17 215.295L255.102 213.972L262.109 214.065L262.218 215.167C262.311 215.987 262.176 216.618 263.049 216.661C263.729 216.694 264.57 216.484 265.369 216.212C266.169 222.226 263.316 228.385 258.431 228.545Z" fill="#FAB9B5"/>
<path d="M255.17 215.295C258.297 216.051 260.492 215.475 262.101 214.059L261.722 208.755L254.704 210.375L255.17 215.295Z" fill="#F7ADAB"/>
<path d="M270.121 196.003C269.648 195.959 269.108 196.129 268.579 196.435C267.901 193.28 266.243 189.915 264.189 187.595C263.328 186.444 262.336 185.691 261.253 185.235C260.668 184.948 260.075 184.754 259.481 184.698C259.073 184.661 258.67 184.644 258.272 184.647C257.874 184.639 257.471 184.65 257.062 184.682C256.467 184.729 255.872 184.916 255.284 185.195C254.196 185.636 253.196 186.376 252.322 187.515C250.242 189.807 248.546 193.15 247.832 196.296C247.306 195.983 246.768 195.806 246.294 195.844C244.707 195.97 244.175 198.453 244.601 200.34C245.141 202.733 246.96 203.494 248.649 203.981C249.415 205.567 250.502 207.123 251.76 208.426C253.075 209.978 254.777 211.134 256.723 211.614C256.78 211.629 256.838 211.642 256.895 211.655C257.008 211.681 257.118 211.716 257.233 211.736C257.31 211.75 257.389 211.75 257.467 211.76C257.533 211.768 257.598 211.774 257.664 211.78C257.815 211.794 257.966 211.804 258.118 211.804C258.27 211.806 258.421 211.797 258.572 211.786C258.637 211.78 258.703 211.776 258.768 211.768C258.846 211.759 258.925 211.76 259.002 211.747C259.117 211.728 259.227 211.694 259.341 211.67C259.398 211.657 259.456 211.645 259.513 211.631C261.465 211.177 263.18 210.043 264.513 208.508C265.785 207.222 266.89 205.681 267.673 204.106C269.367 203.641 271.195 202.905 271.762 200.519C272.21 198.639 271.706 196.15 270.121 196.003Z" fill="#FAB9B5"/>
<path d="M253.519 199.754C253.552 200.285 254.012 200.69 254.546 200.658C255.08 200.626 255.486 200.169 255.452 199.637C255.419 199.105 254.959 198.701 254.425 198.733C253.892 198.766 253.486 199.222 253.519 199.754Z" fill="#323BB4"/>
<path d="M261.375 199.806C261.409 200.337 261.868 200.742 262.402 200.71C262.936 200.678 263.342 200.221 263.308 199.689C263.275 199.157 262.815 198.753 262.281 198.785C261.748 198.818 261.342 199.275 261.375 199.806Z" fill="#323BB4"/>
<path d="M252.558 197.932C252.548 197.929 252.539 197.925 252.529 197.921C252.384 197.858 252.319 197.691 252.383 197.548C253.146 195.844 254.708 195.916 255.433 196.183C255.58 196.239 255.653 196.402 255.598 196.547C255.543 196.694 255.394 196.77 255.23 196.712C255.18 196.693 253.639 196.143 252.907 197.777C252.847 197.911 252.695 197.976 252.558 197.932Z" fill="#323BB4"/>
<path d="M260.866 195.616C260.861 195.608 260.856 195.598 260.851 195.589C260.78 195.449 260.836 195.279 260.977 195.209C262.661 194.373 263.823 195.408 264.212 196.071C264.29 196.206 264.242 196.378 264.106 196.455C263.969 196.534 263.805 196.499 263.715 196.351C263.689 196.305 262.85 194.913 261.235 195.715C261.104 195.781 260.945 195.736 260.866 195.616Z" fill="#323BB4"/>
<path d="M255.045 205.06C255.038 205.049 255.032 205.038 255.026 205.027C254.939 204.856 255.008 204.647 255.181 204.561C257.248 203.534 258.675 204.806 259.152 205.618C259.248 205.784 259.189 205.995 259.022 206.09C258.854 206.186 258.653 206.144 258.542 205.963C258.51 205.906 257.48 204.197 255.498 205.182C255.337 205.262 255.141 205.208 255.045 205.06Z" fill="#323BB4"/>
<path d="M259.195 203.745C259.042 203.744 258.92 203.622 258.919 203.47C258.92 203.319 259.043 203.196 259.196 203.196C259.201 203.196 259.73 203.186 259.867 202.905C259.931 202.775 259.994 202.372 259.23 201.418C259.135 201.299 259.156 201.127 259.276 201.033C259.396 200.94 259.57 200.96 259.666 201.078C260.381 201.972 260.611 202.648 260.367 203.146C260.074 203.741 259.233 203.746 259.197 203.745H259.195Z" fill="#323BB4"/>
<path d="M269.45 190.059C268.714 186.812 266.199 183.831 262.758 182.662C259.382 181.515 255.035 181.753 251.958 183.522C248.068 185.758 245.21 191.332 247.21 195.812C247.85 197.246 248.325 199.358 249.462 200.478C249.997 198.834 249.692 197.05 250.367 195.494C251.573 195.309 252.806 194.9 253.923 194.51C255.624 193.917 257.381 192.811 258.756 191.645C259.863 190.707 260.596 189.709 261.421 188.559C260.77 189.959 261.778 192.583 262.747 193.627C263.594 194.538 264.89 194.859 265.745 195.815C266.479 196.635 266.681 197.641 266.724 198.72C266.759 199.607 266.645 200.489 266.398 201.316C266.482 201.033 267.054 200.601 267.241 200.337C267.529 199.929 267.773 199.489 267.988 199.038C268.426 198.119 268.754 197.126 268.973 196.132C269.37 194.314 269.847 191.814 269.45 190.059Z" fill="#323BB4"/>
</g>
<path d="M199.742 144.921C199.742 143.221 200.067 141.621 200.716 140.122C201.364 138.623 202.259 137.292 203.4 136.128C204.542 134.965 205.862 134.059 207.361 133.41C208.882 132.738 210.504 132.403 212.227 132.403C213.927 132.403 215.527 132.738 217.026 133.41C218.548 134.059 219.879 134.965 221.02 136.128C222.183 137.292 223.089 138.623 223.738 140.122C224.409 141.621 224.745 143.221 224.745 144.921C224.745 146.644 224.409 148.255 223.738 149.754C223.089 151.253 222.183 152.584 221.02 153.747C219.879 154.889 218.548 155.783 217.026 156.432C215.527 157.059 213.927 157.372 212.227 157.372C210.482 157.372 208.86 157.059 207.361 156.432C205.862 155.783 204.542 154.9 203.4 153.781C202.259 152.64 201.364 151.32 200.716 149.821C200.067 148.299 199.742 146.666 199.742 144.921ZM203.77 144.921C203.77 146.129 203.982 147.259 204.407 148.311C204.855 149.362 205.47 150.291 206.253 151.096C207.036 151.879 207.942 152.495 208.972 152.942C210.001 153.389 211.119 153.613 212.328 153.613C213.491 153.613 214.576 153.389 215.583 152.942C216.612 152.495 217.507 151.879 218.268 151.096C219.029 150.291 219.621 149.362 220.047 148.311C220.494 147.259 220.718 146.129 220.718 144.921C220.718 143.69 220.494 142.549 220.047 141.498C219.599 140.446 218.995 139.518 218.234 138.712C217.474 137.907 216.579 137.28 215.549 136.833C214.52 136.385 213.413 136.162 212.227 136.162C211.041 136.162 209.934 136.385 208.904 136.833C207.875 137.28 206.969 137.907 206.186 138.712C205.425 139.518 204.832 140.457 204.407 141.531C203.982 142.583 203.77 143.713 203.77 144.921ZM228.452 144.921C228.452 143.221 228.777 141.621 229.426 140.122C230.075 138.623 230.97 137.292 232.111 136.128C233.252 134.965 234.572 134.059 236.071 133.41C237.592 132.738 239.214 132.403 240.937 132.403C242.637 132.403 244.237 132.738 245.736 133.41C247.258 134.059 248.589 134.965 249.73 136.128C250.893 137.292 251.8 138.623 252.448 140.122C253.12 141.621 253.455 143.221 253.455 144.921C253.455 146.644 253.12 148.255 252.448 149.754C251.8 151.253 250.893 152.584 249.73 153.747C248.589 154.889 247.258 155.783 245.736 156.432C244.237 157.059 242.637 157.372 240.937 157.372C239.192 157.372 237.57 157.059 236.071 156.432C234.572 155.783 233.252 154.9 232.111 153.781C230.97 152.64 230.075 151.32 229.426 149.821C228.777 148.299 228.452 146.666 228.452 144.921ZM232.48 144.921C232.48 146.129 232.692 147.259 233.117 148.311C233.565 149.362 234.18 150.291 234.963 151.096C235.746 151.879 236.652 152.495 237.682 152.942C238.711 153.389 239.83 153.613 241.038 153.613C242.201 153.613 243.286 153.389 244.293 152.942C245.322 152.495 246.217 151.879 246.978 151.096C247.739 150.291 248.332 149.362 248.757 148.311C249.204 147.259 249.428 146.129 249.428 144.921C249.428 143.69 249.204 142.549 248.757 141.498C248.309 140.446 247.705 139.518 246.944 138.712C246.184 137.907 245.289 137.28 244.26 136.833C243.23 136.385 242.123 136.162 240.937 136.162C239.751 136.162 238.644 136.385 237.615 136.833C236.585 137.28 235.679 137.907 234.896 138.712C234.135 139.518 233.542 140.457 233.117 141.531C232.692 142.583 232.48 143.713 232.48 144.921ZM265.586 132.671C267.443 132.671 269.032 132.985 270.352 133.611C271.672 134.237 272.679 135.132 273.372 136.296C274.088 137.459 274.446 138.869 274.446 140.525C274.446 141.487 274.29 142.449 273.976 143.411C273.686 144.373 273.216 145.245 272.567 146.028C271.94 146.812 271.09 147.449 270.016 147.941C268.965 148.411 267.667 148.646 266.123 148.646H262.599V157.104H258.673V132.671H265.586ZM266.123 144.854C266.973 144.854 267.689 144.708 268.271 144.418C268.853 144.127 269.3 143.758 269.614 143.31C269.949 142.863 270.184 142.404 270.318 141.934C270.475 141.442 270.553 141.006 270.553 140.625C270.553 140.222 270.486 139.786 270.352 139.316C270.218 138.824 269.994 138.365 269.681 137.94C269.367 137.493 268.931 137.135 268.372 136.866C267.813 136.576 267.097 136.43 266.224 136.43H262.599V144.854H266.123ZM292.01 137.638C291.137 137.191 290.209 136.81 289.224 136.497C288.24 136.162 287.3 135.994 286.405 135.994C285.197 135.994 284.235 136.262 283.519 136.799C282.825 137.336 282.478 138.075 282.478 139.014C282.478 139.686 282.724 140.278 283.217 140.793C283.709 141.285 284.335 141.722 285.096 142.102C285.857 142.46 286.662 142.807 287.512 143.142C288.251 143.411 288.978 143.735 289.694 144.116C290.432 144.474 291.092 144.921 291.674 145.458C292.256 145.995 292.714 146.666 293.05 147.472C293.408 148.255 293.587 149.228 293.587 150.391C293.587 151.667 293.263 152.841 292.614 153.915C291.965 154.967 291.036 155.806 289.828 156.432C288.62 157.059 287.143 157.372 285.398 157.372C284.391 157.372 283.396 157.26 282.411 157.036C281.449 156.813 280.532 156.511 279.659 156.13C278.787 155.728 277.981 155.28 277.243 154.788L278.988 151.734C279.525 152.137 280.14 152.506 280.834 152.841C281.527 153.177 282.243 153.445 282.982 153.647C283.72 153.826 284.414 153.915 285.063 153.915C285.756 153.915 286.439 153.803 287.11 153.58C287.803 153.356 288.374 152.987 288.821 152.472C289.291 151.958 289.526 151.275 289.526 150.425C289.526 149.731 289.325 149.138 288.922 148.646C288.519 148.154 287.994 147.729 287.345 147.371C286.718 146.991 286.025 146.655 285.264 146.364C284.503 146.073 283.72 145.749 282.915 145.391C282.132 145.033 281.404 144.597 280.733 144.082C280.062 143.545 279.514 142.896 279.089 142.135C278.664 141.375 278.451 140.435 278.451 139.316C278.451 137.974 278.764 136.81 279.391 135.826C280.017 134.842 280.879 134.059 281.975 133.477C283.094 132.895 284.38 132.582 285.834 132.537C287.557 132.537 289.023 132.75 290.231 133.175C291.461 133.577 292.547 134.07 293.486 134.651L292.01 137.638ZM297.011 131.53H300.367V150.66H297.011V131.53ZM298.79 157.204C298.119 157.204 297.559 157.025 297.112 156.667C296.687 156.287 296.474 155.795 296.474 155.191C296.474 154.609 296.687 154.117 297.112 153.714C297.559 153.311 298.119 153.11 298.79 153.11C299.439 153.11 299.976 153.311 300.401 153.714C300.826 154.117 301.038 154.609 301.038 155.191C301.038 155.795 300.826 156.287 300.401 156.667C299.998 157.025 299.461 157.204 298.79 157.204Z" fill="#008DA2"/>
<path d="M160.152 349.409H161.948L165.092 358.263L164.819 358.151L167.113 352.216L167.835 354.317L164.771 361.471L160.152 349.409ZM165.718 349.409H167.274L170.674 358.135L170.353 358.071L173.353 349.409H175.005L170.45 361.455L165.718 349.409ZM178.551 361.102C177.791 361.102 177.139 360.953 176.594 360.653C176.048 360.343 175.626 359.926 175.326 359.402C175.038 358.867 174.893 358.258 174.893 357.573C174.893 356.921 175.059 356.328 175.391 355.793C175.722 355.258 176.166 354.831 176.722 354.51C177.278 354.189 177.898 354.029 178.583 354.029C179.459 354.029 180.187 354.285 180.764 354.798C181.342 355.312 181.732 356.018 181.935 356.916L176.465 358.841L176.112 357.958L180.604 356.322L180.283 356.531C180.155 356.178 179.941 355.873 179.641 355.617C179.342 355.349 178.952 355.216 178.47 355.216C178.064 355.216 177.7 355.317 177.38 355.52C177.059 355.713 176.807 355.98 176.626 356.322C176.444 356.665 176.353 357.055 176.353 357.493C176.353 357.953 176.449 358.359 176.642 358.712C176.834 359.054 177.096 359.327 177.428 359.53C177.77 359.723 178.155 359.819 178.583 359.819C178.871 359.819 179.149 359.766 179.417 359.659C179.695 359.552 179.951 359.413 180.187 359.242L180.876 360.348C180.545 360.573 180.171 360.755 179.754 360.894C179.347 361.033 178.946 361.102 178.551 361.102ZM194.269 360.332C193.97 360.568 193.611 360.755 193.194 360.894C192.777 361.033 192.36 361.102 191.943 361.102C191.216 361.102 190.58 360.958 190.034 360.669C189.489 360.38 189.061 359.979 188.751 359.466C188.452 358.942 188.302 358.327 188.302 357.622C188.302 356.916 188.462 356.301 188.783 355.777C189.115 355.253 189.542 354.852 190.066 354.574C190.601 354.285 191.173 354.141 191.783 354.141C192.317 354.141 192.793 354.216 193.21 354.365C193.638 354.515 194.002 354.718 194.301 354.975L193.563 355.937C193.371 355.788 193.135 355.654 192.857 355.536C192.579 355.419 192.264 355.36 191.911 355.36C191.526 355.36 191.168 355.461 190.836 355.665C190.516 355.857 190.259 356.124 190.066 356.467C189.885 356.809 189.794 357.194 189.794 357.622C189.794 358.028 189.89 358.408 190.082 358.76C190.275 359.103 190.542 359.375 190.884 359.578C191.227 359.771 191.617 359.867 192.055 359.867C192.344 359.867 192.606 359.824 192.841 359.739C193.087 359.653 193.307 359.536 193.499 359.386L194.269 360.332ZM198.954 361.102C198.333 361.102 197.767 360.969 197.253 360.701C196.751 360.434 196.35 360.044 196.05 359.53C195.762 359.006 195.617 358.37 195.617 357.622C195.617 356.884 195.772 356.247 196.082 355.713C196.392 355.167 196.804 354.75 197.317 354.462C197.841 354.173 198.414 354.029 199.034 354.029C199.654 354.029 200.178 354.173 200.606 354.462C201.033 354.74 201.36 355.071 201.584 355.456L201.488 355.713L201.632 354.301H203.012V360.942H201.52V359.21L201.68 359.595C201.638 359.701 201.541 359.84 201.392 360.012C201.253 360.172 201.06 360.338 200.814 360.509C200.579 360.68 200.306 360.824 199.996 360.942C199.686 361.049 199.338 361.102 198.954 361.102ZM199.355 359.867C199.729 359.867 200.066 359.798 200.365 359.659C200.664 359.52 200.91 359.327 201.103 359.081C201.306 358.825 201.445 358.52 201.52 358.167V356.868C201.434 356.547 201.285 356.269 201.071 356.034C200.857 355.788 200.6 355.601 200.301 355.472C200.001 355.333 199.67 355.264 199.306 355.264C198.911 355.264 198.547 355.36 198.216 355.552C197.884 355.745 197.617 356.012 197.414 356.354C197.221 356.697 197.125 357.098 197.125 357.557C197.125 357.985 197.227 358.375 197.43 358.728C197.633 359.081 197.906 359.359 198.248 359.562C198.59 359.766 198.959 359.867 199.355 359.867ZM206.925 354.301L207.053 355.921L206.989 355.665C207.203 355.173 207.55 354.782 208.031 354.494C208.512 354.194 209.069 354.045 209.699 354.045C210.33 354.045 210.844 354.232 211.239 354.606C211.646 354.97 211.854 355.445 211.865 356.034V360.942H210.357V356.563C210.346 356.199 210.239 355.905 210.036 355.681C209.844 355.445 209.539 355.328 209.122 355.328C208.737 355.328 208.39 355.435 208.079 355.649C207.769 355.862 207.523 356.157 207.342 356.531C207.17 356.905 207.085 357.338 207.085 357.83V360.942H205.593V354.301H206.925ZM216.865 351.013L214.828 353.162H213.882L215.213 351.013H216.865ZM219.534 351.382H221.025V354.333H222.854V355.504H221.025V360.942H219.534V355.504H218.315V354.333H219.534V351.382ZM230.277 360.942V355.633H229.138V354.301H230.277V351.494C230.277 350.532 230.491 349.794 230.919 349.281C231.357 348.767 231.999 348.511 232.844 348.511C233.068 348.511 233.314 348.543 233.581 348.607C233.859 348.671 234.1 348.778 234.303 348.928L233.678 350.002C233.581 349.906 233.475 349.842 233.357 349.81C233.25 349.767 233.132 349.746 233.004 349.746C232.608 349.746 232.304 349.88 232.09 350.147C231.876 350.414 231.769 350.869 231.769 351.51V354.301H233.662V355.633H231.769V360.942H230.277ZM234.945 354.301H236.437V360.942H234.945V354.301ZM234.833 351.895C234.833 351.66 234.929 351.467 235.121 351.318C235.314 351.157 235.522 351.077 235.747 351.077C235.961 351.077 236.159 351.157 236.34 351.318C236.522 351.467 236.613 351.665 236.613 351.911C236.613 352.157 236.522 352.36 236.34 352.521C236.159 352.67 235.961 352.745 235.747 352.745C235.522 352.745 235.314 352.665 235.121 352.505C234.929 352.344 234.833 352.141 234.833 351.895ZM240.368 354.301L240.496 355.921L240.432 355.665C240.646 355.173 240.993 354.782 241.474 354.494C241.956 354.194 242.512 354.045 243.143 354.045C243.774 354.045 244.287 354.232 244.683 354.606C245.089 354.97 245.297 355.445 245.308 356.034V360.942H243.8V356.563C243.79 356.199 243.683 355.905 243.479 355.681C243.287 355.445 242.982 355.328 242.565 355.328C242.18 355.328 241.833 355.435 241.523 355.649C241.212 355.862 240.967 356.157 240.785 356.531C240.614 356.905 240.528 357.338 240.528 357.83V360.942H239.036V354.301H240.368ZM250.597 361.102C249.988 361.102 249.431 360.958 248.929 360.669C248.437 360.37 248.047 359.953 247.758 359.418C247.469 358.873 247.325 358.247 247.325 357.541C247.325 356.804 247.475 356.173 247.774 355.649C248.084 355.125 248.501 354.724 249.025 354.446C249.549 354.168 250.137 354.029 250.79 354.029C251.314 354.029 251.811 354.141 252.281 354.365C252.763 354.59 253.137 354.9 253.404 355.296L253.34 355.825V348.527H254.816V360.942H253.324V359.29L253.484 359.707C253.174 360.113 252.773 360.45 252.281 360.717C251.789 360.974 251.228 361.102 250.597 361.102ZM251.062 359.835C251.458 359.835 251.811 359.766 252.121 359.627C252.431 359.477 252.688 359.274 252.891 359.017C253.094 358.76 253.238 358.456 253.324 358.103V356.852C253.238 356.531 253.083 356.253 252.859 356.018C252.645 355.772 252.383 355.579 252.073 355.44C251.773 355.29 251.437 355.216 251.062 355.216C250.656 355.216 250.282 355.317 249.939 355.52C249.608 355.713 249.341 355.98 249.137 356.322C248.934 356.665 248.833 357.06 248.833 357.509C248.833 357.948 248.934 358.343 249.137 358.696C249.341 359.038 249.613 359.316 249.955 359.53C250.298 359.734 250.667 359.835 251.062 359.835ZM263.127 351.382H264.619V354.333H266.448V355.504H264.619V360.942H263.127V355.504H261.908V354.333H263.127V351.382ZM268.25 360.942V348.527H269.71V355.841L269.678 355.568C269.902 355.13 270.245 354.766 270.704 354.478C271.175 354.189 271.726 354.045 272.356 354.045C272.987 354.045 273.501 354.232 273.896 354.606C274.303 354.97 274.511 355.445 274.522 356.034V360.942H273.014V356.563C273.003 356.199 272.897 355.905 272.693 355.681C272.501 355.445 272.196 355.328 271.779 355.328C271.394 355.328 271.047 355.44 270.736 355.665C270.426 355.879 270.18 356.173 269.999 356.547C269.827 356.921 269.742 357.349 269.742 357.83V360.942H268.25ZM280.196 361.102C279.437 361.102 278.784 360.953 278.239 360.653C277.694 360.343 277.271 359.926 276.972 359.402C276.683 358.867 276.539 358.258 276.539 357.573C276.539 356.921 276.704 356.328 277.036 355.793C277.367 355.258 277.811 354.831 278.367 354.51C278.923 354.189 279.544 354.029 280.228 354.029C281.105 354.029 281.832 354.285 282.409 354.798C282.987 355.312 283.377 356.018 283.58 356.916L278.111 358.841L277.758 357.958L282.249 356.322L281.928 356.531C281.8 356.178 281.586 355.873 281.287 355.617C280.987 355.349 280.597 355.216 280.116 355.216C279.709 355.216 279.346 355.317 279.025 355.52C278.704 355.713 278.453 355.98 278.271 356.322C278.089 356.665 277.998 357.055 277.998 357.493C277.998 357.953 278.095 358.359 278.287 358.712C278.48 359.054 278.742 359.327 279.073 359.53C279.415 359.723 279.8 359.819 280.228 359.819C280.517 359.819 280.795 359.766 281.062 359.659C281.34 359.552 281.597 359.413 281.832 359.242L282.522 360.348C282.19 360.573 281.816 360.755 281.399 360.894C280.993 361.033 280.592 361.102 280.196 361.102ZM294.439 361.102C293.936 361.102 293.449 360.985 292.979 360.749C292.519 360.514 292.161 360.199 291.904 359.803L292 359.338V364.134H290.525V354.205H291.808L292.017 355.905L291.856 355.44C292.177 355.034 292.583 354.697 293.075 354.43C293.567 354.162 294.118 354.029 294.727 354.029C295.348 354.029 295.904 354.178 296.395 354.478C296.898 354.777 297.294 355.194 297.582 355.729C297.871 356.264 298.016 356.889 298.016 357.606C298.016 358.322 297.86 358.942 297.55 359.466C297.24 359.99 296.813 360.397 296.267 360.685C295.732 360.963 295.123 361.102 294.439 361.102ZM294.15 359.915C294.578 359.915 294.968 359.819 295.321 359.627C295.684 359.423 295.973 359.151 296.187 358.809C296.401 358.456 296.508 358.06 296.508 357.622C296.508 357.172 296.406 356.777 296.203 356.435C296 356.082 295.727 355.804 295.385 355.601C295.053 355.397 294.679 355.296 294.262 355.296C293.877 355.296 293.53 355.371 293.22 355.52C292.909 355.67 292.653 355.879 292.45 356.146C292.246 356.403 292.102 356.702 292.017 357.044V358.151C292.07 358.493 292.198 358.798 292.401 359.065C292.605 359.333 292.856 359.541 293.155 359.691C293.465 359.84 293.797 359.915 294.15 359.915ZM302.792 361.102C302.172 361.102 301.605 360.969 301.092 360.701C300.589 360.434 300.188 360.044 299.889 359.53C299.6 359.006 299.456 358.37 299.456 357.622C299.456 356.884 299.611 356.247 299.921 355.713C300.231 355.167 300.643 354.75 301.156 354.462C301.68 354.173 302.252 354.029 302.872 354.029C303.492 354.029 304.016 354.173 304.444 354.462C304.872 354.74 305.198 355.071 305.422 355.456L305.326 355.713L305.471 354.301H306.85V360.942H305.358V359.21L305.519 359.595C305.476 359.701 305.38 359.84 305.23 360.012C305.091 360.172 304.899 360.338 304.653 360.509C304.417 360.68 304.145 360.824 303.835 360.942C303.524 361.049 303.177 361.102 302.792 361.102ZM303.193 359.867C303.567 359.867 303.904 359.798 304.203 359.659C304.503 359.52 304.749 359.327 304.941 359.081C305.144 358.825 305.283 358.52 305.358 358.167V356.868C305.273 356.547 305.123 356.269 304.909 356.034C304.695 355.788 304.439 355.601 304.139 355.472C303.84 355.333 303.508 355.264 303.145 355.264C302.749 355.264 302.386 355.36 302.054 355.552C301.723 355.745 301.455 356.012 301.252 356.354C301.06 356.697 300.963 357.098 300.963 357.557C300.963 357.985 301.065 358.375 301.268 358.728C301.471 359.081 301.744 359.359 302.086 359.562C302.428 359.766 302.797 359.867 303.193 359.867ZM312.624 364.23C312.132 364.23 311.699 364.171 311.324 364.054C310.95 363.947 310.608 363.792 310.298 363.589C309.998 363.385 309.71 363.155 309.432 362.899L310.298 361.888C310.651 362.22 311.009 362.476 311.372 362.658C311.736 362.84 312.142 362.931 312.591 362.931C313.094 362.931 313.516 362.845 313.859 362.674C314.212 362.514 314.479 362.284 314.661 361.985C314.842 361.696 314.933 361.359 314.933 360.974L314.949 359.177L315.078 359.466C314.885 359.926 314.538 360.316 314.035 360.637C313.532 360.947 312.923 361.102 312.206 361.102C311.597 361.102 311.036 360.947 310.522 360.637C310.02 360.327 309.613 359.91 309.303 359.386C309.004 358.851 308.854 358.252 308.854 357.589C308.854 356.894 309.014 356.285 309.335 355.761C309.656 355.226 310.078 354.804 310.602 354.494C311.126 354.184 311.699 354.029 312.319 354.029C312.907 354.029 313.442 354.152 313.923 354.397C314.415 354.633 314.773 354.938 314.997 355.312L314.917 355.584L315.078 354.301H316.441V360.99C316.441 361.589 316.286 362.134 315.976 362.626C315.666 363.118 315.227 363.508 314.661 363.797C314.094 364.086 313.415 364.23 312.624 364.23ZM310.346 357.557C310.346 357.985 310.447 358.375 310.651 358.728C310.854 359.081 311.126 359.359 311.469 359.562C311.822 359.766 312.212 359.867 312.64 359.867C313.035 359.867 313.388 359.798 313.698 359.659C314.019 359.509 314.286 359.311 314.5 359.065C314.714 358.809 314.864 358.514 314.949 358.183V356.868C314.853 356.547 314.693 356.269 314.468 356.034C314.244 355.788 313.976 355.601 313.666 355.472C313.356 355.333 313.014 355.264 312.64 355.264C312.212 355.264 311.822 355.36 311.469 355.552C311.126 355.745 310.854 356.018 310.651 356.37C310.447 356.713 310.346 357.108 310.346 357.557ZM322.098 361.102C321.339 361.102 320.686 360.953 320.141 360.653C319.595 360.343 319.173 359.926 318.874 359.402C318.585 358.867 318.441 358.258 318.441 357.573C318.441 356.921 318.606 356.328 318.938 355.793C319.269 355.258 319.713 354.831 320.269 354.51C320.825 354.189 321.445 354.029 322.13 354.029C323.007 354.029 323.734 354.285 324.311 354.798C324.889 355.312 325.279 356.018 325.482 356.916L320.013 358.841L319.66 357.958L324.151 356.322L323.83 356.531C323.702 356.178 323.488 355.873 323.189 355.617C322.889 355.349 322.499 355.216 322.018 355.216C321.611 355.216 321.248 355.317 320.927 355.52C320.606 355.713 320.355 355.98 320.173 356.322C319.991 356.665 319.9 357.055 319.9 357.493C319.9 357.953 319.997 358.359 320.189 358.712C320.381 359.054 320.643 359.327 320.975 359.53C321.317 359.723 321.702 359.819 322.13 359.819C322.419 359.819 322.697 359.766 322.964 359.659C323.242 359.552 323.499 359.413 323.734 359.242L324.424 360.348C324.092 360.573 323.718 360.755 323.301 360.894C322.894 361.033 322.493 361.102 322.098 361.102ZM331.673 355.729C331.673 355.494 331.758 355.296 331.929 355.135C332.111 354.964 332.304 354.879 332.507 354.879C332.71 354.879 332.897 354.959 333.068 355.119C333.25 355.28 333.341 355.483 333.341 355.729C333.341 355.985 333.25 356.194 333.068 356.354C332.897 356.504 332.71 356.579 332.507 356.579C332.304 356.579 332.111 356.504 331.929 356.354C331.758 356.194 331.673 355.985 331.673 355.729ZM331.673 360.092C331.673 359.857 331.758 359.659 331.929 359.498C332.111 359.327 332.304 359.242 332.507 359.242C332.71 359.242 332.897 359.327 333.068 359.498C333.25 359.659 333.341 359.857 333.341 360.092C333.341 360.348 333.25 360.557 333.068 360.717C332.897 360.867 332.71 360.942 332.507 360.942C332.304 360.942 332.111 360.867 331.929 360.717C331.758 360.557 331.673 360.348 331.673 360.092ZM335.599 356.21C335.599 355.13 335.727 354.119 335.984 353.178C336.24 352.237 336.572 351.398 336.978 350.66C337.395 349.922 337.828 349.313 338.277 348.832L339.448 349.489C339.031 349.97 338.646 350.542 338.293 351.205C337.951 351.868 337.673 352.622 337.459 353.467C337.256 354.312 337.155 355.232 337.155 356.226C337.155 357.221 337.256 358.14 337.459 358.985C337.673 359.819 337.951 360.562 338.293 361.215C338.646 361.878 339.031 362.45 339.448 362.931L338.277 363.605C337.828 363.123 337.395 362.508 336.978 361.76C336.572 361.022 336.24 360.188 335.984 359.258C335.727 358.317 335.599 357.301 335.599 356.21Z" fill="#008DA2"/>
<path d="M446.431 305.65L465.766 245.083L419.716 241.187L346.887 298.071L340.049 315.372L406.701 323.748L402.028 338.5L400.144 344.413L433.833 347.62L440.481 328.147L456.373 328.963L463.745 307.66L452.504 306.359L446.431 305.65ZM417.749 287.583L413.111 301.528L402.134 300.23L384.243 298.111L425.302 264.867L417.749 287.583Z" fill="url(#paint10_linear_101_3)"/>
<path d="M340.05 315.372L341.402 330.878L402.029 338.501L406.702 323.749L340.05 315.372ZM384.242 298.111L402.133 300.23L417.748 287.583L425.3 264.867L384.242 298.111ZM456.374 328.964L440.482 328.148L433.834 347.621L400.145 344.414L401.497 359.92L435.186 363.127L441.834 343.654L457.726 344.47L465.098 323.168L463.746 307.662L456.374 328.964ZM446.431 305.65L452.505 306.36L467.118 260.589L465.766 245.083L446.431 305.65Z" fill="url(#paint11_linear_101_3)"/>
<path d="M130.638 297.329L145.752 235.573L99.5427 234.861L30.8087 296.631L25.1807 314.362L92.2517 318.123L88.6067 333.162L87.1347 339.191L120.965 340.068L126.255 320.183L142.166 319.902L148.052 298.142L136.748 297.619L130.638 297.329ZM100.779 281.283L97.1127 295.514L86.0727 294.976L68.0777 294.096L106.747 258.1L100.779 281.283Z" fill="url(#paint12_linear_101_3)"/>
<path d="M25.1807 314.363L27.5987 329.739L88.6067 333.163L92.2517 318.124L25.1807 314.363ZM68.0777 294.096L86.0727 294.976L100.779 281.282L106.747 258.1L68.0777 294.096ZM142.165 319.902L126.254 320.183L120.964 340.068L87.1337 339.191L89.5507 354.566L123.381 355.443L128.671 335.558L144.582 335.277L150.468 313.517L148.05 298.141L142.165 319.902ZM130.638 297.329L136.747 297.618L148.17 250.948L145.753 235.572L130.638 297.329Z" fill="url(#paint13_linear_101_3)"/>
</g>
<defs>
<linearGradient id="paint0_linear_101_3" x1="318.239" y1="168.629" x2="406.72" y2="168.629" gradientUnits="userSpaceOnUse">
<stop stop-color="#FFAE2A"/>
<stop offset="0.3827" stop-color="#FFCC16"/>
<stop offset="0.7627" stop-color="#FFE306"/>
<stop offset="1" stop-color="#FFEC00"/>
</linearGradient>
<linearGradient id="paint1_linear_101_3" x1="313.11" y1="236.761" x2="441.482" y2="236.761" gradientUnits="userSpaceOnUse">
<stop offset="0.0045" stop-color="#008DA2"/>
<stop offset="0.4104" stop-color="#1BABC0"/>
<stop offset="1" stop-color="#47DCF2"/>
</linearGradient>
<linearGradient id="paint2_linear_101_3" x1="168.787" y1="202.513" x2="108.12" y2="93.1802" gradientUnits="userSpaceOnUse">
<stop stop-color="#FFAE2A"/>
<stop offset="0.3827" stop-color="#FFCC16"/>
<stop offset="0.7627" stop-color="#FFE306"/>
<stop offset="1" stop-color="#FFEC00"/>
</linearGradient>
<linearGradient id="paint3_linear_101_3" x1="64.1275" y1="228.184" x2="192.499" y2="228.184" gradientUnits="userSpaceOnUse">
<stop offset="0.0045" stop-color="#008DA2"/>
<stop offset="0.4104" stop-color="#1BABC0"/>
<stop offset="1" stop-color="#47DCF2"/>
</linearGradient>
<linearGradient id="paint4_linear_101_3" x1="185.278" y1="354.367" x2="283.778" y2="230.367" gradientUnits="userSpaceOnUse">
<stop offset="0.0019" stop-color="#574DFF"/>
<stop offset="0.1796" stop-color="#6A6DFF"/>
<stop offset="0.4238" stop-color="#8093FF"/>
<stop offset="0.6499" stop-color="#90AFFF"/>
<stop offset="0.8491" stop-color="#9ABFFF"/>
<stop offset="1" stop-color="#9DC5FF"/>
</linearGradient>
<linearGradient id="paint5_linear_101_3" x1="245.956" y1="278.577" x2="375.456" y2="96.577" gradientUnits="userSpaceOnUse">
<stop offset="0.0019" stop-color="#574DFF"/>
<stop offset="0.1796" stop-color="#6A6DFF"/>
<stop offset="0.4238" stop-color="#8093FF"/>
<stop offset="0.6499" stop-color="#90AFFF"/>
<stop offset="0.8491" stop-color="#9ABFFF"/>
<stop offset="1" stop-color="#9DC5FF"/>
</linearGradient>
<linearGradient id="paint6_linear_101_3" x1="263.924" y1="353.055" x2="263.924" y2="268.609" gradientUnits="userSpaceOnUse">
<stop offset="0.0013" stop-color="#FF2C6E"/>
<stop offset="0.1454" stop-color="#F7296B"/>
<stop offset="0.365" stop-color="#E22261"/>
<stop offset="0.6328" stop-color="#C01552"/>
<stop offset="0.936" stop-color="#90043D"/>
<stop offset="1" stop-color="#850038"/>
</linearGradient>
<linearGradient id="paint7_linear_101_3" x1="283.042" y1="270.389" x2="283.042" y2="199.709" gradientUnits="userSpaceOnUse">
<stop stop-color="#FFAE2A"/>
<stop offset="0.3827" stop-color="#FFCC16"/>
<stop offset="0.7627" stop-color="#FFE306"/>
<stop offset="1" stop-color="#FFEC00"/>
</linearGradient>
<linearGradient id="paint8_linear_101_3" x1="232.841" y1="270.389" x2="232.841" y2="199.709" gradientUnits="userSpaceOnUse">
<stop stop-color="#FFAE2A"/>
<stop offset="0.3827" stop-color="#FFCC16"/>
<stop offset="0.7627" stop-color="#FFE306"/>
<stop offset="1" stop-color="#FFEC00"/>
</linearGradient>
<linearGradient id="paint9_linear_101_3" x1="255.973" y1="270.389" x2="255.973" y2="199.71" gradientUnits="userSpaceOnUse">
<stop stop-color="#FFAE2A"/>
<stop offset="0.3827" stop-color="#FFCC16"/>
<stop offset="0.7627" stop-color="#FFE306"/>
<stop offset="1" stop-color="#FFEC00"/>
</linearGradient>
<linearGradient id="paint10_linear_101_3" x1="373.141" y1="363.311" x2="447.188" y2="233.893" gradientUnits="userSpaceOnUse">
<stop offset="0.0019" stop-color="#574DFF"/>
<stop offset="0.1796" stop-color="#6A6DFF"/>
<stop offset="0.4238" stop-color="#8093FF"/>
<stop offset="0.6499" stop-color="#90AFFF"/>
<stop offset="0.8491" stop-color="#9ABFFF"/>
<stop offset="1" stop-color="#9DC5FF"/>
</linearGradient>
<linearGradient id="paint11_linear_101_3" x1="446.736" y1="247.538" x2="593.814" y2="-5.68886" gradientUnits="userSpaceOnUse">
<stop offset="0.0019" stop-color="#574DFF"/>
<stop offset="0.1796" stop-color="#6A6DFF"/>
<stop offset="0.4238" stop-color="#8093FF"/>
<stop offset="0.6499" stop-color="#90AFFF"/>
<stop offset="0.8491" stop-color="#9ABFFF"/>
<stop offset="1" stop-color="#9DC5FF"/>
</linearGradient>
<linearGradient id="paint12_linear_101_3" x1="62.5238" y1="345.951" x2="124.524" y2="248.451" gradientUnits="userSpaceOnUse">
<stop offset="0.0019" stop-color="#574DFF"/>
<stop offset="0.1796" stop-color="#6A6DFF"/>
<stop offset="0.4238" stop-color="#8093FF"/>
<stop offset="0.6499" stop-color="#90AFFF"/>
<stop offset="0.8491" stop-color="#9ABFFF"/>
<stop offset="1" stop-color="#9DC5FF"/>
</linearGradient>
<linearGradient id="paint13_linear_101_3" x1="241.937" y1="101.586" x2="410.437" y2="-137.913" gradientUnits="userSpaceOnUse">
<stop offset="0.0019" stop-color="#574DFF"/>
<stop offset="0.1796" stop-color="#6A6DFF"/>
<stop offset="0.4238" stop-color="#8093FF"/>
<stop offset="0.6499" stop-color="#90AFFF"/>
<stop offset="0.8491" stop-color="#9ABFFF"/>
<stop offset="1" stop-color="#9DC5FF"/>
</linearGradient>
<clipPath id="clip0_101_3">
<rect width="500" height="433" fill="white"/>
</clipPath>
</defs>
</svg>
