<svg width="456" height="370" viewBox="0 0 456 370" fill="none" xmlns="http://www.w3.org/2000/svg">
<g clip-path="url(#clip0_1_50)">
<path fill-rule="evenodd" clip-rule="evenodd" d="M158.118 47.688C143.458 28.2965 102.518 32.5137 67.598 57.5639C32.678 82.6044 21.538 113.313 36.208 132.705C50.868 152.106 90.448 147.548 125.368 122.498C160.288 97.4573 172.788 67.0795 158.118 47.688ZM442.278 181.403C437.578 165.654 427.408 154.668 419.578 156.888C411.748 159.099 409.198 173.679 413.888 189.428C418.578 205.177 428.748 216.163 436.588 213.952C444.419 211.732 446.968 197.152 442.278 181.403ZM432.958 293.973C432.948 293.379 432.928 292.785 432.888 292.19C432.878 291.713 432.848 291.236 432.818 290.768C432.798 290.515 432.788 290.272 432.758 290.028C432.708 289.23 432.628 288.431 432.548 287.642C432.518 287.311 432.478 286.97 432.438 286.639C432.408 286.366 432.378 286.094 432.338 285.821C432.258 285.178 432.178 284.545 432.078 283.912C432.078 283.873 432.068 283.834 432.058 283.785C431.968 283.181 431.868 282.577 431.768 281.974C431.698 281.535 431.618 281.107 431.528 280.678C431.448 280.24 431.368 279.802 431.268 279.363C431.238 279.188 431.198 279.013 431.158 278.828C431.028 278.195 430.888 277.571 430.738 276.938C430.728 276.89 430.718 276.831 430.698 276.773C430.538 276.091 430.368 275.419 430.188 274.747C430.168 274.669 430.148 274.591 430.128 274.513C429.948 273.841 429.768 273.179 429.568 272.517C429.538 272.39 429.498 272.254 429.458 272.127C429.278 271.533 429.098 270.939 428.908 270.354C428.618 269.429 428.308 268.514 427.988 267.618C427.788 267.033 427.578 266.449 427.358 265.874C427.148 265.309 426.938 264.754 426.718 264.199C426.628 263.975 426.548 263.761 426.458 263.546C425.938 262.251 425.388 260.965 424.828 259.709C415.398 238.564 400.468 222.26 395.158 204.973C387.048 178.598 394.658 160.872 387.048 132.705C379.448 104.548 359.458 83.6952 330.908 70.4786C315.938 63.5538 295.788 58.4405 275.598 57.4178C274.938 57.3691 274.288 57.3399 273.628 57.3302C255.988 56.6387 238.438 59.1417 224.418 66.3101C193.848 81.9518 177.288 116.391 143.878 140.36C88.818 179.844 20.468 184.831 16.858 259.709C16.848 259.962 16.838 260.206 16.828 260.459C16.798 260.946 16.788 261.443 16.768 261.949C16.758 262.251 16.758 262.543 16.748 262.845C16.738 263.381 16.728 263.907 16.718 264.442C16.718 264.978 16.708 265.523 16.708 266.059C16.708 266.994 16.718 267.929 16.738 268.884C17.008 282.227 21.008 294.343 26.848 304.998C43.938 336.077 77.188 355.478 113.378 355.478H370.988C380.768 355.488 390.308 353.258 398.888 349.118C399.838 348.661 400.778 348.174 401.708 347.667C403.108 346.907 404.468 346.089 405.798 345.232C407.128 344.365 408.438 343.45 409.698 342.486C410.548 341.843 411.368 341.181 412.188 340.489C413.808 339.116 415.368 337.655 416.848 336.116C425.478 327.097 432.708 314.592 432.988 297.839C432.998 297.333 432.998 296.836 432.998 296.33C432.998 295.541 432.988 294.752 432.958 293.973Z" fill="#E2ECF9"/>
<path fill-rule="evenodd" clip-rule="evenodd" d="M424.832 259.712C429.789 270.811 433.235 283.238 432.989 297.836C432.707 314.587 425.482 327.098 416.847 336.111C404.97 348.47 388.366 355.483 370.986 355.481C323.085 355.481 180.424 355.481 113.382 355.472C77.189 355.472 43.933 336.073 26.851 304.997C21.012 294.341 17.01 282.226 16.741 268.878C16.677 265.713 16.718 262.664 16.86 259.711H424.832V259.712Z" fill="url(#paint0_linear_1_50)"/>
<path d="M239.986 138.57C240.539 138.57 240.987 138.134 240.987 137.595V30.9125H266.653C267.206 30.9125 267.654 30.4762 267.654 29.9376C267.654 29.399 267.206 28.9627 266.653 28.9627H238.985V137.596C238.985 138.134 239.434 138.57 239.986 138.57Z" fill="#FFB824"/>
<path d="M239.986 138.57C239.433 138.57 238.985 138.134 238.985 137.595V131.255H240.987V137.595C240.987 138.134 240.539 138.57 239.986 138.57Z" fill="#D39711"/>
<path d="M278.995 8.68094C286.271 4.58934 295.235 4.58934 302.512 8.68094C309.788 12.7725 314.27 20.3334 314.27 28.5166C314.27 36.6998 309.788 44.2606 302.512 48.3522C295.236 52.4438 286.272 52.4438 278.995 48.3522C271.719 44.2606 267.237 36.6998 267.237 28.5166C267.237 20.3334 271.719 12.7725 278.995 8.68094Z" fill="#FFB824"/>
<path d="M290.73 43.312C288.335 43.312 286.782 41.627 286.782 39.3811C286.829 37.0913 288.378 35.4502 290.73 35.4502C293.082 35.4502 294.724 37.0913 294.724 39.3811C294.724 41.627 293.128 43.312 290.73 43.312ZM288.202 33.2909L287.227 13.7202H294.281L293.259 33.2909H288.202Z" fill="white"/>
<path d="M310.861 224.323C310.861 223.777 311.316 223.334 311.877 223.334H400.947V102.847C400.947 102.301 401.402 101.858 401.963 101.858C402.524 101.858 402.979 102.301 402.979 102.847V225.313H311.877C311.316 225.313 310.861 224.87 310.861 224.323Z" fill="#F4B10B"/>
<path d="M310.861 224.323C310.861 223.777 311.316 223.334 311.877 223.334H319.028V225.313H311.877C311.316 225.313 310.861 224.87 310.861 224.323Z" fill="#F89D13"/>
<path d="M368.092 104.954H400.169C401.649 111.079 407.282 115.644 414.023 115.644C421.891 115.644 428.269 109.432 428.269 101.769C428.269 94.1059 421.891 87.894 414.023 87.894C407.282 87.894 401.649 92.4589 400.169 98.5841H368.092V104.954ZM406.964 101.768C406.964 97.9715 410.124 94.8928 414.023 94.8928C417.921 94.8928 421.082 97.9705 421.082 101.768C421.082 105.564 417.922 108.643 414.023 108.643C410.124 108.643 406.964 105.565 406.964 101.768Z" fill="#F89D13"/>
<path d="M382.295 104.954V114.568H377.841V109.76H375.747V114.568H371.293V104.954H382.295Z" fill="#F89D13"/>
<path d="M382.295 104.954H371.293V108.643H382.295V104.954Z" fill="#FFB824"/>
<path d="M84.849 88.901L148.812 135.505L212.775 88.901H84.849Z" fill="#D17E11"/>
<path d="M84.849 88.901L148.812 42.2971L212.775 88.901H84.849Z" fill="url(#paint1_linear_1_50)"/>
<path d="M206.717 60.7098H90.906V129.393H206.717V60.7098Z" fill="url(#paint2_linear_1_50)"/>
<path d="M146.678 79.6114C141.032 79.6114 135.517 82.0405 135.517 89.5682C135.517 92.7336 137.346 95.5522 139.974 97.3754V99.0409C139.974 100.342 140.894 101.431 142.134 101.732V100.979C142.134 100.659 142.401 100.4 142.729 100.4C143.058 100.4 143.324 100.66 143.324 100.979V101.817H144.713V100.979C144.713 100.659 144.98 100.4 145.308 100.4C145.636 100.4 145.903 100.66 145.903 100.979V101.817H147.292V100.979C147.292 100.659 147.559 100.4 147.887 100.4C148.216 100.4 148.482 100.66 148.482 100.979V101.817H149.871V100.979C149.871 100.659 150.138 100.4 150.466 100.4C150.795 100.4 151.061 100.66 151.061 100.979V101.732C152.301 101.431 153.221 100.342 153.221 99.0409V97.4426C155.857 95.6213 157.678 92.7725 157.678 89.5682C157.682 82.0405 152.324 79.6114 146.678 79.6114ZM144.101 93.354C142.372 94.7039 140.045 94.6747 138.904 93.2877C137.763 91.9008 138.24 89.6831 139.969 88.3322C141.698 86.9823 144.025 87.0115 145.166 88.3985C146.308 89.7854 145.831 92.0041 144.101 93.354ZM145.543 96.5047L146.599 94.7224L147.655 96.5047H145.543ZM154.296 93.2887C153.155 94.6756 150.828 94.7048 149.098 93.3549C147.369 92.005 146.892 89.7863 148.033 88.3994C149.174 87.0125 151.501 86.9833 153.23 88.3332C154.96 89.6831 155.437 91.9018 154.296 93.2887Z" fill="white"/>
<path d="M161.858 111.399L134.817 100.028C135.39 98.7351 134.779 97.2352 133.452 96.6781C132.125 96.12 130.585 96.7151 130.013 98.0075C129.592 98.9562 129.812 100.015 130.482 100.733C129.486 100.749 128.544 101.32 128.124 102.269C127.551 103.561 128.162 105.061 129.489 105.618C130.816 106.176 132.356 105.581 132.928 104.289L159.969 115.661C159.396 116.953 160.007 118.453 161.334 119.01C162.661 119.568 164.201 118.973 164.773 117.681C165.194 116.732 164.974 115.673 164.304 114.955C165.3 114.939 166.242 114.368 166.662 113.419C167.235 112.127 166.624 110.627 165.297 110.07C163.971 109.512 162.431 110.107 161.858 111.399Z" fill="white"/>
<path d="M131.342 111.399L158.383 100.028C157.81 98.7351 158.421 97.2352 159.748 96.6781C161.075 96.12 162.615 96.7151 163.188 98.0075C163.608 98.9562 163.389 100.015 162.719 100.733C163.715 100.749 164.657 101.32 165.077 102.269C165.65 103.561 165.039 105.061 163.712 105.618C162.385 106.176 160.845 105.581 160.273 104.289L133.232 115.661C133.805 116.953 133.194 118.453 131.867 119.01C130.54 119.568 129 118.973 128.428 117.681C128.008 116.732 128.227 115.673 128.897 114.955C127.901 114.939 126.959 114.368 126.539 113.419C125.966 112.127 126.577 110.627 127.904 110.07C129.229 109.512 130.769 110.107 131.342 111.399Z" fill="white"/>
<path d="M84.849 169.34L148.812 122.735L212.775 169.34H84.849Z" fill="url(#paint3_linear_1_50)"/>
<path d="M84.849 88.901V169.34L140.049 129.121L84.849 88.901Z" fill="url(#paint4_linear_1_50)"/>
<path d="M157.575 129.121L212.775 169.34V88.901L157.575 129.121Z" fill="url(#paint5_linear_1_50)"/>
<path d="M304.946 96.4219H232.79C231.051 96.4219 229.641 97.7952 229.641 99.4889V160.283C229.641 161.977 231.051 163.35 232.79 163.35H304.946C306.685 163.35 308.095 161.977 308.095 160.283V99.4889C308.095 97.7952 306.685 96.4219 304.946 96.4219ZM268.868 106.537C266.406 106.537 264.411 104.594 264.411 102.197C264.411 99.7987 266.406 97.8556 268.868 97.8556C271.33 97.8556 273.325 99.7987 273.325 102.197C273.325 104.594 271.329 106.537 268.868 106.537Z" fill="url(#paint6_linear_1_50)"/>
<path d="M264.92 100.18C263.906 99.3136 263.221 98.0105 263.005 96.4229H260.231C260.54 99.5035 262.151 101.936 264.523 103.165C264.448 102.854 264.41 102.531 264.41 102.198C264.41 101.469 264.595 100.782 264.92 100.18Z" fill="white"/>
<path d="M278.489 84.4637H278.487C278.207 82.9794 277.067 81.7863 275.594 81.4015C275.255 81.3119 274.901 81.2662 274.534 81.2691C274.223 81.272 273.921 81.309 273.631 81.3772C271.865 81.7911 270.563 83.3495 270.577 85.1941C270.588 86.8586 271.684 88.2826 273.205 88.8105L273.4 95.3116C273.4 95.3223 273.4 95.336 273.4 95.336C273.403 95.71 273.38 96.0732 273.335 96.4219H276.138C276.181 95.8648 276.171 95.4616 276.169 95.3145L275.976 88.791C276.884 88.4627 277.625 87.819 278.079 87.0018C278.082 87.0018 278.087 87.0037 278.09 87.0037C278.105 86.9755 278.116 86.9443 278.131 86.9161C278.149 86.881 278.165 86.844 278.182 86.808C278.244 86.6804 278.298 86.5479 278.346 86.4126C278.364 86.3629 278.38 86.3142 278.395 86.2626C278.438 86.1243 278.47 85.984 278.496 85.8408C278.503 85.798 278.512 85.7581 278.519 85.7152C278.547 85.5253 278.565 85.3344 278.563 85.1367C278.569 84.9059 278.546 84.6799 278.489 84.4637ZM276.886 85.6694C276.878 85.7045 276.866 85.7376 276.857 85.7727C276.819 85.91 276.767 86.0415 276.705 86.1681C276.69 86.1963 276.679 86.2256 276.662 86.2538C276.492 86.5626 276.253 86.8304 275.964 87.031C275.568 87.3164 275.1 87.4722 274.582 87.4752C274.052 87.4781 273.581 87.3174 273.193 87.0398C272.588 86.6336 272.197 85.9548 272.19 85.1805C272.18 83.9027 273.232 82.8498 274.545 82.8401C275.449 82.8333 276.235 83.329 276.645 84.0536C276.707 84.1608 276.756 84.2718 276.8 84.3867C276.828 84.4646 276.857 84.5426 276.877 84.6253C276.913 84.7675 276.934 84.9136 276.939 85.0646C276.939 85.0919 276.947 85.1172 276.947 85.1445C276.95 85.3266 276.925 85.5 276.886 85.6694ZM272.22 99.3389C271.301 100.588 269.901 101.332 268.219 101.344C266.93 101.354 265.802 100.931 264.92 100.179C263.906 99.3126 263.221 98.0095 263.005 96.4219C262.961 96.0888 262.936 95.745 262.933 95.3876L262.9 91.0359L265.754 91.0155C263.07 89.7328 260.592 83.9796 260.077 82.7047L260.175 95.409C260.178 95.7528 260.196 96.0908 260.231 96.4219C260.54 99.5026 262.151 101.936 264.523 103.164C265.617 103.731 266.875 104.043 268.241 104.043C270.526 104.043 272.153 103.417 273.311 102.497C273.321 102.399 273.324 102.299 273.324 102.197C273.324 101.103 272.908 100.103 272.22 99.3389Z" fill="#184785"/>
<path d="M275.598 57.4178V82.1466H273.628V57.3302C274.288 57.3399 274.938 57.3691 275.598 57.4178Z" fill="#184785"/>
<path d="M302.337 122.278H238.986V136.082H302.337V122.278Z" fill="white"/>
<path d="M247.225 122.278H233.052V136.082H247.225V122.278Z" fill="#FFB824"/>
<path d="M255.41 125.977H254.69V132.638H255.41V125.977Z" fill="#93BBE5"/>
<path d="M255.599 132.823H254.5V125.793H255.599V132.823ZM254.879 132.454H255.22V126.162H254.879V132.454Z" fill="#93BBE5"/>
<path d="M252.265 127.347L251.905 127.954L257.827 131.285L258.187 130.678L252.265 127.347Z" fill="#93BBE5"/>
<path d="M257.901 131.528L251.65 128.013L252.199 127.086L258.45 130.601L257.901 131.528ZM252.167 127.878L257.762 131.024L257.932 130.736L252.337 127.591L252.167 127.878Z" fill="#93BBE5"/>
<path d="M258.203 127.94L257.843 127.332L251.92 130.663L252.28 131.27L258.203 127.94Z" fill="#93BBE5"/>
<path d="M252.199 131.528L251.65 130.601L257.901 127.086L258.45 128.013L252.199 131.528ZM252.167 130.736L252.337 131.024L257.932 127.878L257.762 127.591L252.167 130.736Z" fill="#93BBE5"/>
<path d="M264.757 125.977H264.037V132.638H264.757V125.977Z" fill="#93BBE5"/>
<path d="M264.947 132.823H263.848V125.793H264.947V132.823ZM264.227 132.454H264.568V126.162H264.227V132.454Z" fill="#93BBE5"/>
<path d="M261.61 127.341L261.25 127.949L267.172 131.279L267.532 130.672L261.61 127.341Z" fill="#93BBE5"/>
<path d="M267.248 131.528L260.997 128.013L261.546 127.086L267.797 130.601L267.248 131.528ZM261.515 127.878L267.11 131.024L267.28 130.736L261.685 127.591L261.515 127.878Z" fill="#93BBE5"/>
<path d="M267.544 127.939L267.184 127.332L261.261 130.662L261.621 131.27L267.544 127.939Z" fill="#93BBE5"/>
<path d="M261.547 131.528L260.998 130.601L267.249 127.086L267.799 128.013L261.547 131.528ZM261.515 130.736L261.685 131.024L267.28 127.878L267.11 127.591L261.515 130.736Z" fill="#93BBE5"/>
<path d="M274.105 125.977H273.385V132.638H274.105V125.977Z" fill="#93BBE5"/>
<path d="M274.295 132.823H273.196V125.793H274.295V132.823ZM273.575 132.454H273.916V126.162H273.575V132.454Z" fill="#93BBE5"/>
<path d="M270.957 127.342L270.597 127.949L276.519 131.28L276.879 130.672L270.957 127.342Z" fill="#93BBE5"/>
<path d="M276.596 131.528L270.345 128.013L270.894 127.086L277.145 130.601L276.596 131.528ZM270.863 127.878L276.458 131.024L276.628 130.736L271.033 127.591L270.863 127.878Z" fill="#93BBE5"/>
<path d="M276.891 127.938L276.531 127.331L270.609 130.662L270.969 131.269L276.891 127.938Z" fill="#93BBE5"/>
<path d="M270.894 131.528L270.345 130.601L276.596 127.086L277.145 128.013L270.894 131.528ZM270.863 130.736L271.033 131.024L276.628 127.878L276.458 127.591L270.863 130.736Z" fill="#93BBE5"/>
<path d="M283.453 125.977H282.733V132.638H283.453V125.977Z" fill="#93BBE5"/>
<path d="M283.642 132.823H282.543V125.793H283.642V132.823ZM282.922 132.454H283.263V126.162H282.922V132.454Z" fill="#93BBE5"/>
<path d="M280.304 127.342L279.944 127.949L285.867 131.28L286.227 130.672L280.304 127.342Z" fill="#93BBE5"/>
<path d="M285.944 131.528L279.693 128.013L280.243 127.086L286.494 130.601L285.944 131.528ZM280.21 127.878L285.805 131.024L285.975 130.736L280.38 127.591L280.21 127.878Z" fill="#93BBE5"/>
<path d="M286.239 127.938L285.879 127.331L279.956 130.662L280.316 131.269L286.239 127.938Z" fill="#93BBE5"/>
<path d="M280.242 131.528L279.692 130.601L285.943 127.086L286.493 128.013L280.242 131.528ZM280.21 130.736L280.38 131.024L285.975 127.878L285.805 127.591L280.21 130.736Z" fill="#93BBE5"/>
<path d="M292.8 125.977H292.08V132.638H292.8V125.977Z" fill="#93BBE5"/>
<path d="M292.99 132.823H291.891V125.793H292.99V132.823ZM292.27 132.454H292.611V126.162H292.27V132.454Z" fill="#93BBE5"/>
<path d="M289.655 127.349L289.295 127.956L295.218 131.286L295.578 130.679L289.655 127.349Z" fill="#93BBE5"/>
<path d="M295.291 131.528L289.04 128.013L289.59 127.086L295.841 130.601L295.291 131.528ZM289.558 127.878L295.153 131.024L295.323 130.736L289.728 127.591L289.558 127.878Z" fill="#93BBE5"/>
<path d="M295.594 127.938L295.234 127.331L289.311 130.661L289.671 131.268L295.594 127.938Z" fill="#93BBE5"/>
<path d="M289.589 131.528L289.039 130.601L295.29 127.086L295.84 128.013L289.589 131.528ZM289.558 130.736L289.728 131.024L295.323 127.878L295.153 127.591L289.558 130.736Z" fill="#93BBE5"/>
<path d="M70.894 215.702C67.003 211.094 64.174 205.13 64.283 197.561C63.943 197.629 60.331 173.836 40.278 168.706C40.418 168.796 55.127 166.608 71.176 170.902C83.633 174.235 93.017 184.327 95.198 196.728C97.084 207.454 100.894 220.779 109.461 225.103C109.338 225.128 107.018 225.661 104.109 226.331C91.867 229.153 78.885 225.166 70.894 215.702Z" fill="#0390A5"/>
<path d="M49.695 275.436C49.695 275.436 61.229 263.755 82.669 269.393C84.507 268.806 107.501 273.817 115.634 252.846C115.474 251.973 77.793 217.089 49.695 275.436Z" fill="#0390A5"/>
<path d="M153.115 257.268C153.116 257.266 153.116 257.265 153.117 257.263C153.487 256.158 152.867 254.969 151.731 254.608C141.961 251.506 137.585 243.863 134.07 237.722C132.677 235.289 131.361 232.99 129.867 231.238C122.919 223.092 104.278 221.667 103.488 221.611C102.297 221.525 101.26 222.397 101.173 223.557C101.085 224.717 101.98 225.726 103.171 225.811C108.047 226.165 121.749 228.311 126.541 233.929C127.779 235.381 128.944 237.416 130.293 239.772C133.972 246.198 139.01 254.999 150.391 258.612C151.524 258.973 152.743 258.371 153.115 257.268Z" fill="#307175"/>
<path d="M154.27 257.565C154.62 256.527 154.093 255.387 153.039 254.963C137.563 248.747 111.949 251.873 110.866 252.01C109.682 252.159 108.846 253.215 108.998 254.368C109.151 255.521 110.235 256.336 111.419 256.187C111.673 256.155 136.981 253.07 151.39 258.857C152.494 259.3 153.758 258.788 154.213 257.712C154.235 257.664 154.254 257.615 154.27 257.565Z" fill="#307175"/>
<path d="M114.912 227.46C114.912 227.46 118.528 217.561 124.108 207.73C128.813 199.44 136.176 192.929 144.967 188.878C153.19 185.089 166.643 174.828 169.845 154.083C157.814 158.813 148.403 159.139 132.653 162.467C113.499 166.515 88.519 199.561 114.912 227.46Z" fill="#18A8BD"/>
<path d="M106.979 232.054C95.973 216.982 73.023 216.239 61.253 230.753C60.303 231.925 59.383 233.2 58.501 234.588C57.7 236.112 46.936 240.891 36.087 236.919C36.047 237.064 36.243 237.846 36.711 239.035C42.965 254.925 63.567 259.897 76.91 248.909C86.347 241.138 98.856 232 107.546 233.051C107.734 233.151 107.496 232.761 106.979 232.054Z" fill="#18A8BD"/>
<path d="M110.763 263.963C97.966 259.738 83.982 266.917 80.608 279.661C79.211 284.94 79.639 291.181 81.045 298.87C85.47 323.062 65.46 330.884 65.46 330.884C65.46 330.884 98.651 333.787 103.348 301.677C104.317 300.949 101.97 272.624 111.768 264.513C112.119 264.474 111.685 264.267 110.763 263.963Z" fill="#18A8BD"/>
<path d="M153.133 255.507C153.499 254.423 152.91 253.247 151.799 252.865C122.451 242.766 116.764 226.174 116.71 226.007C116.35 224.898 115.135 224.283 113.997 224.634C112.859 224.984 112.227 226.168 112.587 227.276C112.834 228.038 118.999 246.044 150.359 256.836C151.485 257.223 152.72 256.649 153.118 255.552C153.123 255.538 153.128 255.522 153.133 255.507Z" fill="#448C8C"/>
<path d="M155.009 250.331C155.256 249.598 155.08 248.761 154.481 248.179C139.859 233.987 101.203 228.112 99.564 227.869C98.384 227.694 97.279 228.485 97.101 229.634C96.921 230.784 97.732 231.859 98.913 232.034C99.3 232.091 137.808 237.943 151.428 251.163C152.274 251.984 153.643 251.983 154.486 251.159C154.733 250.917 154.907 250.633 155.009 250.331Z" fill="#448C8C"/>
<path d="M152.157 260.777C152.501 259.76 152.001 258.635 150.973 258.194C141.859 254.29 130.822 254.625 119.054 259.166C110.302 262.542 104.263 267.001 104.01 267.189C103.061 267.895 102.879 269.217 103.605 270.141C104.33 271.065 105.686 271.242 106.635 270.536C106.864 270.367 129.701 253.681 149.231 262.049C150.324 262.518 151.6 262.034 152.081 260.969C152.11 260.906 152.135 260.842 152.157 260.777Z" fill="#448C8C"/>
<path d="M171.372 154.574C171.532 154.099 171.457 153.556 171.12 153.13C170.579 152.444 169.57 152.314 168.866 152.842C168.65 153.004 147.147 169.051 136.424 173.295C129.738 175.941 117.868 184.675 112.574 197.892C108.462 208.162 109.053 218.9 114.337 229.807C114.716 230.589 115.674 230.924 116.477 230.554C117.28 230.185 117.624 229.252 117.245 228.47C112.353 218.372 111.791 208.471 115.57 199.03C120.495 186.735 131.464 178.639 137.635 176.196C148.76 171.793 169.93 155.996 170.825 155.326C171.09 155.126 171.275 154.862 171.372 154.574Z" fill="#0390A5"/>
<path d="M106.632 231.471C106.636 231.459 106.64 231.449 106.643 231.437C106.901 230.609 106.422 229.734 105.572 229.483C104.741 229.238 103.766 228.862 102.636 228.425C98.999 227.024 94.018 225.103 88.051 225.375C81.042 225.693 74.208 229.056 67.738 235.369C61.377 241.576 54.359 243.566 46.88 241.283C41.16 239.537 37.256 235.842 37.217 235.805C36.584 235.199 35.567 235.206 34.944 235.822C34.321 236.436 34.326 237.426 34.957 238.034C35.134 238.204 39.372 242.24 45.798 244.235C51.819 246.104 60.907 246.467 70.013 237.582C83.503 224.42 94.305 228.583 101.453 231.339C102.649 231.799 103.681 232.198 104.638 232.48C105.475 232.727 106.36 232.277 106.632 231.471Z" fill="#0390A5"/>
<path d="M113.06 265.49C113.109 265.344 113.137 265.188 113.14 265.026C113.154 264.161 112.446 263.449 111.558 263.435C111.096 263.429 100.158 263.344 93.932 270.69C90.008 275.32 88.899 281.764 90.638 289.841C93.241 301.933 88.791 311.003 84.601 316.483C78.264 324.77 69.515 328.98 65.326 329.324C64.441 329.396 63.784 330.153 63.858 331.015C63.932 331.877 64.71 332.517 65.595 332.445C71.185 331.987 80.65 326.894 87.179 318.355C91.764 312.359 96.632 302.434 93.784 289.199C92.256 282.1 93.139 276.544 96.411 272.684C101.664 266.486 111.408 266.565 111.506 266.567C112.228 266.577 112.846 266.124 113.06 265.49Z" fill="#0390A5"/>
<path d="M342.351 160.263C341.578 154.345 339.064 148.249 333.334 143.133C333.618 142.939 318.321 124.057 328.245 106.328C328.216 106.489 316.492 115.412 308.689 129.731C302.633 140.845 303.735 154.418 311.504 164.471C318.223 173.166 325.564 185.007 322.918 194.045C323.021 193.975 325.011 192.696 327.507 191.095C338.012 184.353 343.939 172.418 342.351 160.263Z" fill="#18A8BD"/>
<path d="M401.519 186.217C401.519 186.217 384.88 186.378 374.385 205.439C372.686 206.338 360.655 226.071 339.41 217.45C338.866 216.736 338.655 166.104 401.519 186.217Z" fill="#0390A5"/>
<path d="M317.001 247.044C316.999 247.043 316.998 247.042 316.996 247.042C315.916 246.546 315.454 245.29 315.963 244.239C320.348 235.188 317.639 226.843 315.463 220.138C314.601 217.482 313.786 214.973 313.503 212.713C312.184 202.2 323.907 188.013 324.407 187.415C325.16 186.512 326.523 186.375 327.449 187.109C328.376 187.843 328.516 189.169 327.763 190.072C324.682 193.77 316.886 204.953 317.796 212.202C318.031 214.076 318.752 216.298 319.587 218.869C321.864 225.884 324.983 235.491 319.875 246.037C319.365 247.085 318.08 247.536 317.001 247.044Z" fill="#307175"/>
<path d="M316.43 248.066C315.414 247.603 314.923 246.447 315.33 245.409C321.303 230.179 341.21 214.171 342.054 213.497C342.978 212.759 344.339 212.892 345.097 213.791C345.854 214.691 345.719 216.017 344.796 216.754C344.598 216.912 324.932 232.731 319.37 246.912C318.944 247.999 317.694 248.543 316.578 248.128C316.528 248.109 316.478 248.089 316.43 248.066Z" fill="#307175"/>
<path d="M320.94 199.523C320.94 199.523 311.064 195.295 299.892 192.505C290.472 190.152 280.556 190.904 271.499 194.354C263.028 197.583 246.133 200.077 228.439 188.115C240.225 182.834 246.925 176.388 260.216 167.51C276.378 156.714 318.203 161.681 320.94 199.523Z" fill="#18A8BD"/>
<path d="M329.813 197.053C326.104 178.914 341.292 162.141 360.209 163.757C361.736 163.887 363.32 164.11 364.962 164.436C366.651 164.915 377.604 160.565 382.08 150.152C382.216 150.224 382.665 150.898 383.232 152.046C390.813 167.379 380.394 185.389 363.032 187.307C350.752 188.664 335.345 191.26 330.169 198.138C330.115 198.34 329.987 197.903 329.813 197.053Z" fill="#18A8BD"/>
<path d="M351.055 221.623C356.678 209.656 371.633 204.672 383.468 211.023C388.37 213.653 392.739 218.239 397.518 224.509C412.556 244.241 432.126 235.426 432.126 235.426C432.126 235.426 411.526 260.939 384.316 242.24C383.108 242.427 363.557 221.334 350.777 222.713C350.506 222.934 350.65 222.485 351.055 221.623Z" fill="#18A8BD"/>
<path d="M315.673 245.849C314.612 245.365 314.138 244.139 314.614 243.09C327.202 215.365 318.708 199.953 318.621 199.8C318.039 198.784 318.414 197.501 319.457 196.934C320.5 196.369 321.817 196.733 322.399 197.749C322.798 198.446 332.022 215.168 318.571 244.794C318.088 245.857 316.811 246.338 315.719 245.868C315.702 245.862 315.687 245.855 315.673 245.849Z" fill="#448C8C"/>
<path d="M310.518 243.627C309.801 243.3 309.296 242.6 309.273 241.777C308.701 221.679 330.83 190.255 331.772 188.928C332.451 187.971 333.799 187.731 334.78 188.393C335.762 189.054 336.009 190.366 335.33 191.322C335.107 191.636 313.063 222.939 313.596 241.661C313.629 242.823 312.688 243.792 311.494 243.824C311.146 243.833 310.814 243.761 310.518 243.627Z" fill="#448C8C"/>
<path d="M320.279 248.772C319.283 248.318 318.786 247.192 319.162 246.161C322.497 237.024 330.319 229.433 341.783 224.208C350.309 220.322 357.783 219.102 358.097 219.051C359.276 218.863 360.388 219.641 360.58 220.789C360.773 221.936 359.975 223.018 358.797 223.207C358.514 223.253 330.382 227.99 323.236 247.572C322.836 248.667 321.6 249.24 320.474 248.85C320.408 248.827 320.342 248.801 320.279 248.772Z" fill="#448C8C"/>
<path d="M227.757 189.534C227.292 189.322 226.939 188.896 226.851 188.365C226.71 187.51 227.306 186.707 228.183 186.57C228.452 186.528 255.191 182.297 265.717 177.609C272.281 174.686 286.948 172.266 300.454 177.581C310.948 181.712 318.564 189.497 323.087 200.723C323.411 201.529 323.004 202.437 322.178 202.753C321.352 203.069 320.418 202.673 320.094 201.868C315.906 191.474 308.895 184.284 299.249 180.484C286.685 175.54 273.112 177.759 267.054 180.457C256.133 185.321 229.81 189.487 228.694 189.661C228.363 189.714 228.04 189.663 227.757 189.534Z" fill="#0390A5"/>
<path d="M329.616 196.407C329.605 196.402 329.594 196.396 329.582 196.391C328.787 196.006 328.462 195.066 328.857 194.292C329.243 193.535 329.632 192.586 330.081 191.486C331.529 187.947 333.512 183.099 337.807 179.057C342.853 174.309 350.053 171.772 359.208 171.518C368.209 171.268 374.509 167.659 377.935 160.794C380.555 155.542 380.473 150.242 380.471 150.188C380.452 149.324 381.156 148.609 382.042 148.589C382.928 148.57 383.664 149.252 383.686 150.115C383.692 150.358 383.8 156.129 380.882 162.052C378.148 167.601 372.185 174.291 359.3 174.648C340.213 175.179 335.913 185.69 333.068 192.645C332.592 193.809 332.181 194.813 331.736 195.686C331.348 196.448 330.404 196.766 329.616 196.407Z" fill="#0390A5"/>
<path d="M350.621 224.299C350.478 224.234 350.342 224.146 350.219 224.037C349.563 223.453 349.517 222.463 350.116 221.825C350.428 221.492 357.867 213.684 367.628 214.311C373.779 214.705 379.353 218.341 384.195 225.114C391.443 235.253 401.271 238.323 408.239 239.112C418.777 240.306 427.924 236.994 431.054 234.26C431.715 233.683 432.732 233.736 433.324 234.381C433.917 235.025 433.861 236.015 433.2 236.592C429.023 240.24 418.725 243.453 407.867 242.223C400.242 241.359 389.488 237.999 381.556 226.903C377.301 220.95 372.544 217.764 367.416 217.435C359.182 216.906 352.557 223.865 352.491 223.936C352.004 224.455 351.241 224.582 350.621 224.299Z" fill="#0390A5"/>
<path d="M399.8 282.635H396.404V279.316C396.404 278.601 395.809 278.027 395.075 278.027C394.338 278.027 393.749 278.602 393.749 279.316V282.635H390.35C389.616 282.635 389.023 283.203 389.023 283.918C389.023 284.633 389.616 285.218 390.35 285.218H393.749V288.523C393.749 289.237 394.338 289.82 395.075 289.82C395.809 289.82 396.404 289.236 396.404 288.523V285.218H399.8C400.534 285.218 401.129 284.633 401.129 283.918C401.129 283.204 400.534 282.635 399.8 282.635Z" fill="#CBDBEF"/>
<path d="M58.864 304.475H55.468V301.156C55.468 300.441 54.873 299.867 54.139 299.867C53.402 299.867 52.812 300.442 52.812 301.156V304.475H49.413C48.679 304.475 48.086 305.043 48.086 305.758C48.086 306.473 48.679 307.058 49.413 307.058H52.812V310.363C52.812 311.077 53.401 311.66 54.139 311.66C54.873 311.66 55.468 311.077 55.468 310.363V307.058H58.864C59.598 307.058 60.193 306.472 60.193 305.758C60.193 305.043 59.598 304.475 58.864 304.475Z" fill="#CBDBEF"/>
<path d="M324.349 79.6114C324.349 82.7953 327.011 85.388 330.277 85.388C333.546 85.388 336.205 82.7953 336.205 79.6114C336.205 76.4295 333.546 73.8349 330.277 73.8349C327.011 73.8349 324.349 76.4305 324.349 79.6114ZM326.623 79.6114C326.623 77.6489 328.262 76.0497 330.277 76.0497C332.295 76.0497 333.931 77.6489 333.931 79.6114C333.931 81.5769 332.295 83.1703 330.277 83.1703C328.262 83.1712 326.623 81.5769 326.623 79.6114Z" fill="#98BDFF"/>
<path d="M369.565 72.0924C369.565 75.2763 372.227 77.869 375.493 77.869C378.762 77.869 381.421 75.2763 381.421 72.0924C381.421 68.9105 378.762 66.3159 375.493 66.3159C372.227 66.3159 369.565 68.9115 369.565 72.0924ZM371.839 72.0924C371.839 70.1299 373.478 68.5307 375.493 68.5307C377.511 68.5307 379.147 70.1299 379.147 72.0924C379.147 74.0579 377.511 75.6513 375.493 75.6513C373.478 75.6523 371.839 74.0589 371.839 72.0924Z" fill="#98BDFF" fill-opacity="0.54"/>
<path d="M72.0891 62.0246C72.0891 65.2085 74.7511 67.8012 78.0171 67.8012C81.2861 67.8012 83.9451 65.2085 83.9451 62.0246C83.9451 58.8427 81.2861 56.2481 78.0171 56.2481C74.7511 56.2471 72.0891 58.8427 72.0891 62.0246ZM74.3631 62.0246C74.3631 60.0621 76.0021 58.4629 78.0171 58.4629C80.0351 58.4629 81.6711 60.0621 81.6711 62.0246C81.6711 63.9901 80.0351 65.5835 78.0171 65.5835C76.0021 65.5835 74.3631 63.9901 74.3631 62.0246Z" fill="#98BDFF" fill-opacity="0.54"/>
<path d="M16.559 247.762C15.729 247.762 15.064 248.422 15.064 249.224C15.064 250.036 15.729 250.675 16.559 250.675H31.504C32.331 250.675 33.002 250.036 33.002 249.224C33.002 248.422 32.332 247.762 31.504 247.762H16.559Z" fill="#98BDFF" fill-opacity="0.54"/>
<path d="M37.911 247.762C37.09 247.762 36.416 248.422 36.416 249.224C36.416 250.036 37.09 250.675 37.911 250.675H40.654C41.481 250.675 42.146 250.036 42.146 249.224C42.146 248.422 41.481 247.762 40.654 247.762H37.911Z" fill="#CBDBEF"/>
<path d="M183.758 31.8349C182.928 31.8349 182.263 32.4942 182.263 33.2968C182.263 34.1081 182.928 34.747 183.758 34.747H198.703C199.53 34.747 200.201 34.1081 200.201 33.2968C200.201 32.4942 199.531 31.8349 198.703 31.8349H183.758Z" fill="#98BDFF" fill-opacity="0.54"/>
<path d="M205.11 31.8349C204.289 31.8349 203.615 32.4942 203.615 33.2968C203.615 34.1081 204.289 34.747 205.11 34.747H207.853C208.68 34.747 209.345 34.1081 209.345 33.2968C209.345 32.4942 208.68 31.8349 207.853 31.8349H205.11Z" fill="#98BDFF" fill-opacity="0.54"/>
<path d="M24.481 131.182C23.651 131.182 22.986 131.842 22.986 132.644C22.986 133.456 23.651 134.095 24.481 134.095H39.426C40.253 134.095 40.924 133.456 40.924 132.644C40.924 131.842 40.254 131.182 39.426 131.182H24.481Z" fill="#98BDFF" fill-opacity="0.54"/>
<path d="M51.341 131.182C50.52 131.182 49.846 131.842 49.846 132.644C49.846 133.456 50.52 134.095 51.341 134.095H54.084C54.911 134.095 55.576 133.456 55.576 132.644C55.576 131.842 54.911 131.182 54.084 131.182H51.341Z" fill="#98BDFF" fill-opacity="0.54"/>
<path d="M361.675 341.005C361.675 342.942 359.869 344.515 357.641 344.515H106.358C104.131 344.515 102.324 342.942 102.324 341.005V192.956C102.324 191.02 104.13 189.447 106.358 189.447H357.641C359.869 189.447 361.675 191.02 361.675 192.956V341.005Z" fill="#93BBE5"/>
<path d="M348.483 333.027C348.483 333.03 348.479 333.034 348.474 333.034H115.524C115.52 333.034 115.516 333.031 115.516 333.028V200.928H348.482V333.027H348.483Z" fill="#EEF5FF"/>
<path d="M362.094 357.887H101.906C95.448 357.887 90.212 352.787 90.212 346.497C90.212 345.38 91.142 344.475 92.288 344.475H371.712C372.859 344.475 373.788 345.381 373.788 346.497C373.788 352.787 368.553 357.887 362.094 357.887Z" fill="#184785"/>
<path d="M250.631 344.514V344.52C250.631 348.345 247.448 351.445 243.521 351.445H220.486C216.556 351.445 213.369 348.342 213.369 344.513" fill="#D1E1E8"/>
<path d="M325.482 214.996H138.518V312.423H325.482V214.996Z" fill="white"/>
<path d="M325.482 214.996H138.518V226.041H325.482V214.996Z" fill="#DDE9FC"/>
<path d="M145.185 220.948C145.185 221.95 144.352 222.761 143.324 222.761C142.296 222.761 141.463 221.95 141.463 220.948C141.463 219.947 142.296 219.136 143.324 219.136C144.352 219.136 145.185 219.947 145.185 220.948Z" fill="#F89D13"/>
<path d="M149.224 222.761C150.252 222.761 151.085 221.949 151.085 220.948C151.085 219.947 150.252 219.136 149.224 219.136C148.196 219.136 147.363 219.947 147.363 220.948C147.363 221.949 148.196 222.761 149.224 222.761Z" fill="#EAAA5E"/>
<path d="M155.123 222.761C156.151 222.761 156.984 221.949 156.984 220.948C156.984 219.947 156.151 219.136 155.123 219.136C154.095 219.136 153.262 219.947 153.262 220.948C153.262 221.949 154.095 222.761 155.123 222.761Z" fill="#39B54A"/>
<path d="M318.728 235.041H193.759V239.732H318.728V235.041Z" fill="#DDE9FC"/>
<path d="M318.728 245.098H193.759V249.789H318.728V245.098Z" fill="#DDE9FC"/>
<path d="M318.728 255.155H193.759V259.846H318.728V255.155Z" fill="#DDE9FC"/>
<path d="M318.728 265.211H193.759V269.902H318.728V265.211Z" fill="#DDE9FC"/>
<path d="M318.728 275.268H193.759V279.96H318.728V275.268Z" fill="#DDE9FC"/>
<path d="M318.728 285.324H193.759V290.016H318.728V285.324Z" fill="#DDE9FC"/>
<path d="M318.728 295.381H193.759V300.073H318.728V295.381Z" fill="#DDE9FC"/>
<path d="M188.851 235.041H144.03V300.073H188.851V235.041Z" fill="#DDE9FC"/>
<path d="M127.073 245.864C129.927 247.123 132.887 248.281 134.732 250.121C136.597 251.919 137.385 254.4 135.9 258.197C134.417 261.995 132.076 263.288 129.299 263.322C126.538 263.315 123.365 262.072 120.301 260.72C114.152 258.097 107.86 254.92 111.775 247.727C115.675 240.555 121.32 243.408 127.073 245.864ZM125.776 248.709C119.168 245.833 116.59 244.954 114.457 249.066C112.343 253.133 114.686 254.867 121.598 257.877C128.526 260.842 131.375 261.391 133.095 257.132C134.817 252.861 132.405 251.546 125.776 248.709Z" fill="#184785"/>
<path d="M116.73 248.144C116.73 248.144 114.456 247.068 112.225 245.924C109.988 244.784 107.814 243.572 107.814 243.574C107.109 243.176 106.189 243.456 105.724 244.182C105.256 244.913 105.486 245.857 106.22 246.271C106.22 246.271 108.462 247.517 110.737 248.678C113.014 249.845 115.32 250.938 115.32 250.938C116.072 251.299 116.994 250.963 117.375 250.189C117.759 249.415 117.471 248.498 116.73 248.144Z" fill="#184785"/>
<path d="M157.496 256.764C163.529 258.538 169.818 260.074 167.846 267.946C165.862 275.866 159.113 274.219 152.706 272.335C151.106 271.861 149.492 271.382 148.013 270.811C146.54 270.21 145.208 269.502 144.161 268.627C142.056 266.886 141.137 264.416 142.534 260.576C143.925 256.756 146.172 255.373 148.805 255.144C150.123 255.034 151.536 255.234 152.998 255.564C154.471 255.866 155.99 256.317 157.496 256.764ZM156.578 259.746C154.843 259.231 153.366 258.822 152.107 258.567C150.856 258.294 149.821 258.154 148.952 258.233C147.217 258.386 146.145 259.359 145.385 261.527C144.625 263.697 144.881 265.101 146.227 266.257C146.901 266.832 147.841 267.358 149.071 267.858C150.308 268.342 151.82 268.819 153.623 269.353C154.528 269.621 155.358 269.861 156.13 270.068C156.909 270.253 157.622 270.409 158.275 270.526C159.586 270.759 160.665 270.843 161.551 270.725C163.325 270.493 164.326 269.461 164.922 267.243C165.51 265.025 165.166 263.633 163.807 262.564C163.127 262.028 162.19 261.575 160.988 261.138C160.384 260.918 159.717 260.704 158.978 260.486C158.248 260.249 157.449 260.003 156.578 259.746Z" fill="#184785"/>
<path d="M147.126 259.336C147.126 259.336 146.296 259.078 145.048 258.689C143.8 258.304 142.133 257.793 140.491 257.221C137.192 256.109 133.899 254.997 133.899 254.997C132.833 254.614 131.615 255.16 131.178 256.223C130.742 257.285 131.259 258.467 132.341 258.855C132.341 258.855 135.673 259.981 139.011 261.107C140.675 261.685 142.359 262.201 143.622 262.592C144.886 262.984 145.727 263.246 145.727 263.246C146.825 263.588 148.024 262.988 148.402 261.907C148.782 260.824 148.211 259.672 147.126 259.336Z" fill="#184785"/>
<path d="M189.113 264C192.209 264.582 195.38 264.971 197.633 266.321C199.885 267.657 201.261 269.914 200.754 273.928C200.243 277.981 198.296 279.751 195.613 280.408C192.94 281.054 189.553 280.633 186.269 280.019C184.619 279.735 182.958 279.446 181.419 279.051C179.877 278.666 178.475 278.077 177.329 277.335C175.033 275.826 173.812 273.499 174.723 269.532C175.633 265.567 177.701 263.915 180.281 263.405C181.576 263.138 182.996 263.214 184.495 263.332C185.998 263.462 187.56 263.731 189.113 264ZM188.566 267.067C181.41 265.888 178.664 265.621 177.674 270.137C176.699 274.582 179.374 275.723 186.813 276.951C190.518 277.632 193.12 277.82 194.851 277.386C196.585 276.94 197.454 275.794 197.77 273.523C198.084 271.253 197.569 269.915 196.088 269.02C194.603 268.113 192.138 267.727 188.566 267.067Z" fill="#184785"/>
<path d="M179.186 267.886C179.186 267.886 175.768 267.245 172.349 266.604C170.637 266.299 168.949 265.885 167.673 265.623C166.402 265.347 165.552 265.164 165.552 265.164C164.447 264.925 163.311 265.585 163.015 266.637C162.72 267.689 163.391 268.739 164.511 268.981C164.511 268.981 165.372 269.167 166.656 269.447C167.948 269.71 169.655 270.128 171.387 270.436C174.846 271.085 178.3 271.734 178.3 271.734C179.429 271.947 180.536 271.255 180.776 270.193C181.011 269.131 180.3 268.097 179.186 267.886Z" fill="#184785"/>
<path d="M221.372 267.511C224.522 267.61 227.709 267.71 230.114 268.805C232.516 269.86 234.162 271.841 234.168 275.917C234.174 279.966 232.46 282.052 229.883 283.026C227.308 283.962 223.892 283.854 220.549 283.747C217.208 283.569 213.803 283.299 211.334 282.121C210.1 281.536 209.105 280.687 208.477 279.46C207.847 278.244 207.581 276.685 207.783 274.662C207.987 272.639 208.556 271.167 209.38 270.103C210.203 269.052 211.288 268.379 212.539 267.945C215.044 267.088 218.226 267.343 221.372 267.511ZM221.213 270.62C213.97 270.17 211.202 270.38 210.783 274.954C210.364 279.507 213.173 280.174 220.703 280.638C228.25 280.872 231.109 280.551 231.154 275.936C231.196 271.387 228.468 270.841 221.213 270.62Z" fill="#184785"/>
<path d="M211.983 272.704C211.983 272.702 208.405 272.526 204.847 272.173C201.285 271.862 197.723 271.55 197.723 271.55C196.558 271.449 195.495 272.185 195.341 273.191C195.187 274.198 196.012 275.099 197.192 275.2C197.192 275.2 200.797 275.515 204.397 275.83C207.998 276.185 211.616 276.365 211.616 276.365C212.794 276.434 213.831 275.667 213.923 274.656C214.014 273.646 213.145 272.77 211.983 272.704Z" fill="#184785"/>
<path d="M253.801 267.086C256.939 266.809 260.118 266.532 262.643 267.331C265.157 268.067 267.049 269.842 267.576 273.882C268.101 277.905 266.667 280.171 264.236 281.47C261.797 282.704 258.394 283.003 255.058 283.293C253.392 283.467 251.703 283.531 250.106 283.476C248.509 283.423 247.003 283.24 245.704 282.79C243.101 281.89 241.337 279.951 241.237 275.868C241.135 271.827 242.727 269.703 245.099 268.58C246.29 268.016 247.677 267.697 249.166 267.502C250.652 267.307 252.238 267.251 253.801 267.086ZM254.044 270.19C252.238 270.378 250.706 270.443 249.437 270.618C248.166 270.789 247.153 271.034 246.371 271.41C244.81 272.165 244.163 273.45 244.25 275.739C244.333 278.03 245.086 279.25 246.77 279.854C247.61 280.156 248.683 280.305 250.016 280.354C251.349 280.4 252.944 280.385 254.819 280.192C262.341 279.529 265.14 278.87 264.589 274.272C264.049 269.767 261.27 269.549 254.044 270.19Z" fill="#184785"/>
<path d="M245.085 273.861C245.085 273.861 244.171 273.89 242.798 273.934C241.425 273.965 239.595 274.066 237.764 274.067C234.094 274.084 230.432 274.101 230.432 274.101C229.238 274.106 228.265 274.809 228.265 275.668C228.262 276.526 229.245 277.219 230.457 277.213C230.457 277.213 234.167 277.197 237.876 277.179C239.729 277.178 241.578 277.078 242.972 277.045C244.36 277 245.288 276.97 245.288 276.97C246.496 276.931 247.426 276.204 247.362 275.346C247.299 274.488 246.277 273.822 245.085 273.861Z" fill="#184785"/>
<path d="M285.93 262.764C292.065 261.383 298.394 260.059 300.47 267.838C302.592 275.791 295.785 277.236 289.259 278.693C285.966 279.287 282.602 279.863 279.907 279.305C278.561 279.025 277.385 278.457 276.471 277.455C275.554 276.438 274.896 274.975 274.583 272.97C274.269 270.957 274.448 269.409 274.977 268.172C275.498 266.918 276.375 265.99 277.481 265.281C279.691 263.858 282.832 263.32 285.93 262.764ZM286.566 265.816C279.429 267.077 276.806 267.964 277.555 272.492C278.306 277.012 281.194 276.962 288.62 275.644C295.986 274.02 298.664 272.981 297.542 268.531C296.421 264.082 293.644 264.25 286.566 265.816Z" fill="#184785"/>
<path d="M277.961 271.07C277.961 271.07 277.028 271.178 275.629 271.343C274.23 271.506 272.367 271.739 270.481 271.881C266.719 272.209 262.964 272.536 262.964 272.536C261.739 272.643 260.878 273.421 261.04 274.274C261.204 275.127 262.343 275.73 263.586 275.621C263.586 275.621 267.39 275.29 271.193 274.959C273.099 274.815 274.983 274.58 276.401 274.414C277.818 274.249 278.763 274.139 278.763 274.139C279.997 273.995 280.809 273.192 280.577 272.346C280.349 271.5 279.176 270.928 277.961 271.07Z" fill="#184785"/>
<path d="M317.257 254.502C318.752 254.023 320.267 253.552 321.728 253.206C323.172 252.805 324.576 252.555 325.893 252.611C328.519 252.723 330.816 254.046 332.333 257.833C333.845 261.62 333 264.107 330.972 265.946C329.957 266.865 328.655 267.62 327.214 268.289C325.754 268.904 324.144 269.406 322.557 269.916C319.376 270.919 316.143 271.986 313.398 271.739C310.63 271.431 308.413 269.919 307.287 266.007C306.158 262.094 307.179 259.712 309.214 258.113C311.232 256.449 314.256 255.447 317.257 254.502ZM318.271 257.455C314.818 258.555 312.477 259.416 311.158 260.552C309.839 261.672 309.523 263.014 310.19 265.225C310.849 267.412 311.904 268.471 313.682 268.639C315.453 268.791 317.959 268.107 321.541 266.965C323.331 266.392 324.836 265.888 326.057 265.374C327.257 264.81 328.183 264.256 328.834 263.651C330.134 262.44 330.342 261.022 329.514 258.878C328.685 256.734 327.582 255.801 325.848 255.715C324.98 255.673 323.953 255.843 322.718 256.181C321.467 256.469 319.997 256.904 318.271 257.455Z" fill="#184785"/>
<path d="M310.25 263.093L295.664 266.471C294.478 266.747 293.777 267.841 294.099 268.912C294.423 269.982 295.664 270.625 296.87 270.347L311.627 266.929C312.816 266.61 313.463 265.483 313.075 264.429C312.687 263.371 311.425 262.78 310.25 263.093Z" fill="#184785"/>
<path d="M347.437 242.74C353.102 240.009 358.93 237.21 362.834 244.394C366.739 251.577 360.522 254.575 354.535 257.452C353.056 258.206 351.478 258.793 349.981 259.316C348.471 259.818 347.001 260.167 345.625 260.197C342.867 260.261 340.498 259.05 338.901 255.296C337.304 251.542 338.016 249.023 339.824 247.146C340.731 246.207 341.914 245.425 343.236 244.726C344.545 244.004 346.038 243.457 347.437 242.74ZM348.797 245.557C347.989 245.964 347.229 246.307 346.525 246.616C345.826 246.936 345.196 247.24 344.632 247.541C343.509 248.141 342.647 248.722 342.052 249.345C340.867 250.592 340.739 252.016 341.663 254.12C342.588 256.228 343.74 257.106 345.533 257.088C346.427 257.078 347.485 256.846 348.744 256.433C349.375 256.225 350.062 255.973 350.801 255.68C351.547 255.396 352.34 255.053 353.178 254.635C359.932 251.386 362.284 249.769 360.13 245.693C357.981 241.619 355.317 242.416 348.797 245.557Z" fill="#184785"/>
<path d="M341.361 251.865C341.361 251.865 337.909 253.125 334.454 254.386C332.741 255.044 330.98 255.604 329.655 256.016C328.336 256.435 327.455 256.716 327.455 256.716C326.31 257.08 325.762 258.209 326.236 259.232C326.71 260.255 328.035 260.786 329.196 260.416C329.196 260.416 330.087 260.132 331.423 259.707C332.761 259.29 334.543 258.723 336.274 258.059C339.764 256.786 343.257 255.511 343.257 255.511C344.395 255.094 344.89 253.943 344.361 252.94C343.83 251.935 342.487 251.454 341.361 251.865Z" fill="#184785"/>
<path d="M363.388 242.905C363.388 242.905 361.441 243.723 360.114 244.133C358.796 244.554 357.916 244.835 357.916 244.835C356.767 245.2 356.219 246.328 356.693 247.351C357.168 248.374 358.492 248.905 359.655 248.534C359.655 248.534 360.545 248.25 361.883 247.826C363.221 247.408 365.283 246.551 365.283 246.551C366.42 246.135 366.915 244.984 366.385 243.979C365.856 242.976 364.513 242.493 363.388 242.905Z" fill="#184785"/>
<path d="M232 219.02C204.804 219.02 182.757 240.493 182.757 266.981C182.757 293.468 204.804 314.941 232 314.941C259.196 314.941 281.243 293.468 281.243 266.981C281.243 240.493 259.196 219.02 232 219.02ZM232 228.198C241.426 228.198 250.086 231.39 256.907 236.723L200.933 291.239C195.458 284.597 192.18 276.162 192.18 266.981C192.18 245.561 210.008 228.198 232 228.198ZM232 305.764C222.894 305.764 214.503 302.784 207.795 297.775L263.618 243.406C268.761 249.939 271.82 258.112 271.82 266.981C271.82 288.4 253.992 305.764 232 305.764Z" fill="#FFB824"/>
<path d="M247.337 260.324H214.872V248.066C214.872 239.348 222.154 232.256 231.105 232.256C240.056 232.256 247.338 239.348 247.338 248.066V260.324H247.337ZM219.25 256.061H242.96V248.067C242.96 241.7 237.642 236.521 231.105 236.521C224.568 236.521 219.25 241.7 219.25 248.067V256.061Z" fill="#BCBEC0"/>
<path d="M247.593 292.993H214.617C212.233 292.993 210.3 291.11 210.3 288.788V256.671C210.3 254.349 212.233 252.467 214.617 252.467H247.593C249.977 252.467 251.91 254.349 251.91 256.671V288.788C251.91 291.11 249.977 292.993 247.593 292.993Z" fill="#297EEC"/>
<path d="M251.91 288.788V256.671C251.91 254.349 249.977 252.467 247.593 252.467H230.85V292.993H247.593C249.977 292.993 251.91 291.11 251.91 288.788Z" fill="#297EEC"/>
<path d="M237.087 284.113L233.483 268.624C235.126 267.766 236.224 266.047 236.139 264.086C236.031 261.579 233.917 259.51 231.343 259.395C228.452 259.266 226.066 261.51 226.066 264.297C226.066 266.17 227.143 267.797 228.727 268.624L225.123 284.113C224.89 285.116 225.672 286.07 226.728 286.07H235.483C236.538 286.07 237.32 285.116 237.087 284.113Z" fill="#184785"/>
</g>
<defs>
<linearGradient id="paint0_linear_1_50" x1="426" y1="307.667" x2="27.0655" y2="285.082" gradientUnits="userSpaceOnUse">
<stop stop-color="#574DFF" stop-opacity="0.71"/>
<stop offset="0.18" stop-color="#9DC5FF" stop-opacity="0.9"/>
<stop offset="0.42" stop-color="#9ABFFF"/>
<stop offset="0.65" stop-color="#90AFFF"/>
<stop offset="0.85" stop-color="#8093FF"/>
<stop offset="1" stop-color="#6A6DFF" stop-opacity="0.49"/>
</linearGradient>
<linearGradient id="paint1_linear_1_50" x1="148.812" y1="42.2971" x2="148.812" y2="88.901" gradientUnits="userSpaceOnUse">
<stop stop-color="#FFE308"/>
<stop offset="0.5" stop-color="#FFC919"/>
<stop offset="1" stop-color="#FFAE2A"/>
</linearGradient>
<linearGradient id="paint2_linear_1_50" x1="148.812" y1="60.7098" x2="148.812" y2="129.393" gradientUnits="userSpaceOnUse">
<stop offset="0.15" stop-color="#696BFF"/>
<stop offset="0.5" stop-color="#7A89FF"/>
<stop offset="1" stop-color="#574DFF"/>
</linearGradient>
<linearGradient id="paint3_linear_1_50" x1="148.812" y1="122.735" x2="148.812" y2="169.34" gradientUnits="userSpaceOnUse">
<stop stop-color="#FFAF2B"/>
<stop offset="0.5" stop-color="#FFAE2A"/>
<stop offset="1" stop-color="#99691A"/>
</linearGradient>
<linearGradient id="paint4_linear_1_50" x1="112.449" y1="88.901" x2="112.449" y2="169.34" gradientUnits="userSpaceOnUse">
<stop stop-color="#FFE308"/>
<stop offset="0.5" stop-color="#FFC919"/>
<stop offset="1" stop-color="#FFAE2A"/>
</linearGradient>
<linearGradient id="paint5_linear_1_50" x1="185.175" y1="88.901" x2="185.175" y2="169.34" gradientUnits="userSpaceOnUse">
<stop stop-color="#FFE308"/>
<stop offset="0.5" stop-color="#FFC919"/>
<stop offset="1" stop-color="#FFAE2A"/>
</linearGradient>
<linearGradient id="paint6_linear_1_50" x1="268.868" y1="96.4219" x2="268.868" y2="163.35" gradientUnits="userSpaceOnUse">
<stop stop-color="#9DC5FF"/>
<stop offset="0.5" stop-color="#7A89FF"/>
<stop offset="1" stop-color="#574DFF" stop-opacity="0.88"/>
</linearGradient>
<clipPath id="clip0_1_50">
<rect width="456" height="370" fill="white"/>
</clipPath>
</defs>
</svg>
