<svg width="219" height="286" viewBox="0 0 219 286" fill="none" xmlns="http://www.w3.org/2000/svg">
<path opacity="0.4" d="M37.6872 19.7539C28.0139 24.0883 21.8647 33.2177 15.0751 41.2927C1.85551 57.0114 -3.98509 81.0201 2.9274 100.64C8.30589 115.9 17.2788 127.615 16.3488 144.323C15.3719 161.898 9.10138 180.307 14.3585 198.113C19.3699 215.079 40.704 225.738 57.2066 226.203C71.9367 226.617 86.49 224.884 101.116 224.09C114.364 223.37 126.577 226.106 139.643 228.374C161.796 232.222 188.053 237.352 200.544 212.621C207.323 199.199 211.813 182.214 212.013 167.24C212.162 156.089 209.275 145.439 209.147 134.323C208.999 121.818 214.179 114.347 217.782 102.929C222.388 88.3275 212.956 75.6636 205.738 63.4911C190.438 37.7012 165.396 28.5543 138.016 21.9416C138.016 21.9416 61.6111 9.04078 37.6872 19.7539Z" fill="#D8DFF4"/>
<path d="M14.356 266.487C18.3935 274.359 46.5348 281.77 55.0704 281.668C68.5839 281.503 80.9188 280.091 94.346 281.842C119.798 285.161 145.801 283.981 171.211 285.249C183.528 285.863 206.165 281.128 208.499 266.613C211.61 247.246 194.395 226.312 179.832 216.288C162.703 204.494 144.921 206.711 125.538 208.562C106.608 210.367 89.3185 213.333 70.175 210.711C63.3078 209.77 56.5942 208.912 49.3908 209.279C44.6923 209.519 -3.53285 231.61 14.356 266.487Z" fill="#FFC069"/>
<path d="M21.8583 257.457C20.3843 254.004 17.7418 247.454 21.2909 244.272C21.4152 244.161 21.2968 243.961 21.1403 244.024C19.1062 244.863 19.055 248.114 19.1369 249.927C19.229 251.998 19.4586 256.471 21.5614 257.697C21.7252 257.787 21.9417 257.651 21.8583 257.457Z" fill="#FFD666"/>
<path d="M30.6082 237.764C26.8851 241.138 25.5339 247.101 26.657 251.848C26.7389 252.199 27.2887 252.114 27.2082 251.759C25.9799 246.312 28.2729 242.542 30.9431 238.086C31.0732 237.873 30.8202 237.573 30.6082 237.764Z" fill="#FFD666"/>
<path d="M37.6607 237.148C37.8742 236.917 37.51 236.594 37.2761 236.776C35.356 238.322 34.8588 241.223 34.581 243.531C34.369 245.268 34.0955 248.095 35.4057 249.515C35.5476 249.666 35.7801 249.483 35.6587 249.312C34.6219 247.849 34.9948 245.236 35.1703 243.588C35.4189 241.283 36.0667 238.891 37.6607 237.148Z" fill="#FFD666"/>
<path d="M38.0837 274.518C33.9204 272.13 29.3301 268.646 29.5261 263.29C29.5363 263.027 29.1342 262.982 29.1152 263.254C28.7627 268.357 33.2551 273.281 37.822 274.995C38.1057 275.1 38.3601 274.678 38.0837 274.518Z" fill="#FFD666"/>
<path d="M42.862 267.829C40.1815 265.656 37.8608 263.445 37.2378 259.882C37.175 259.534 36.6354 259.619 36.6939 259.971C37.2613 263.361 39.5586 266.549 42.5374 268.272C42.8371 268.446 43.1428 268.057 42.862 267.829Z" fill="#FFD666"/>
<path d="M36.8592 222.414C34.7037 223.469 33.2195 226.145 32.3406 228.267C32.171 228.68 32.8173 228.926 32.9899 228.515C33.4754 227.341 34.0779 226.253 34.8412 225.237C35.5256 224.32 36.4425 223.666 37.1781 222.812C37.3521 222.609 37.0888 222.303 36.8592 222.414Z" fill="#FFD666"/>
<path d="M83.2756 275.936C76.113 276.501 65.9878 278.509 61.6169 270.794C61.4238 270.452 60.8594 270.694 61.0539 271.043C62.8628 274.296 66.1618 276.104 69.7372 276.863C73.8172 277.725 79.5115 278.242 83.4145 276.395C83.6689 276.272 83.5417 275.915 83.2756 275.936Z" fill="#FFD666"/>
<path d="M81.8997 265.454C74.898 264.086 67.0686 262.239 64.4715 254.55C64.3501 254.187 63.8105 254.433 63.929 254.789C66.1079 261.367 74.9843 266.845 81.9158 265.862C82.1614 265.829 82.1205 265.497 81.8997 265.454Z" fill="#FFD666"/>
<path d="M86.2687 253.489C80.9926 251.267 73.1252 249.582 72.1952 242.67C72.1337 242.218 71.4391 242.333 71.4976 242.784C71.91 245.865 73.9997 248.079 76.4052 249.882C78.9424 251.781 82.9141 253.966 86.1561 253.954C86.4223 253.954 86.529 253.603 86.2687 253.489Z" fill="#FFD666"/>
<path d="M72.4154 231.97C68.0035 230.488 64.2 227.772 64.0406 222.684C64.0259 222.282 63.3928 222.214 63.4045 222.624C63.539 227.477 67.3893 231.896 72.2969 232.466C72.5836 232.503 72.6932 232.065 72.4154 231.97Z" fill="#FFD666"/>
<path d="M106.512 234.489C100.864 223.857 85.5944 230.096 77.7709 222.505C77.553 222.296 77.1758 222.589 77.3936 222.808C80.6854 226.138 84.9832 227.153 89.4872 227.746C96.0502 228.606 101.761 229.146 106.028 234.785C106.219 235.041 106.664 234.777 106.512 234.489Z" fill="#FFD666"/>
<path d="M105.039 243.978C100.073 238.426 91.0461 237.649 84.4056 235.204C83.9508 235.042 83.6832 235.738 84.1366 235.906C91.1909 238.531 98.5479 239.679 104.646 244.386C104.902 244.586 105.257 244.221 105.039 243.978Z" fill="#FFD666"/>
<path d="M111.673 263.048C105.879 258.289 97.8511 257.106 91.5967 253.023C91.3086 252.835 90.9898 253.263 91.2764 253.458C97.5308 257.625 104.926 259.573 111.338 263.5C111.645 263.688 111.954 263.279 111.673 263.048Z" fill="#FFD666"/>
<path d="M119.108 271.596C109.379 272.755 100.976 270.25 92.5574 265.438C92.2547 265.266 91.9257 265.701 92.2314 265.881C100.263 270.567 109.775 274.367 119.198 272.147C119.548 272.066 119.469 271.553 119.108 271.596Z" fill="#FFD666"/>
<path d="M145.286 262.136C137.298 267.913 125.93 260.802 118.841 256.352C118.532 256.158 118.193 256.612 118.504 256.811C123.127 259.759 127.98 262.421 133.23 264.072C137.072 265.283 142.807 266.128 145.615 262.45C145.779 262.238 145.493 261.988 145.286 262.136Z" fill="#FFD666"/>
<path d="M144.297 251.584C138.388 255.188 128.114 252.409 123.725 247.28C123.428 246.938 122.88 247.377 123.174 247.723C127.122 252.368 139.549 257.205 144.648 252.021C144.903 251.761 144.604 251.395 144.297 251.584Z" fill="#FFD666"/>
<path d="M149.551 236.771C144.182 240.51 136.627 240.823 130.85 237.631C130.412 237.391 129.943 238.02 130.384 238.262C135.642 241.166 145.577 242.235 149.958 237.163C150.18 236.905 149.801 236.594 149.551 236.771Z" fill="#FFD666"/>
<path d="M141.564 229.57C132.84 232.015 122.255 230.115 114.574 225.245C114.202 225.009 113.797 225.56 114.169 225.794C118.339 228.458 123.253 229.869 128.073 230.81C132.126 231.601 138.062 232.421 141.762 230.019C141.972 229.88 141.804 229.504 141.564 229.57Z" fill="#FFD666"/>
<path d="M150.401 224.302C145.139 219.352 137.016 221.536 130.737 219.004C130.341 218.841 130.107 219.453 130.498 219.621C136.876 222.333 144.149 220.649 150.012 224.833C150.366 225.087 150.704 224.587 150.401 224.302Z" fill="#FFD666"/>
<path d="M177.874 279.723C168.214 281.275 160.033 278.284 150.712 276.37C150.357 276.296 150.31 276.853 150.657 276.927C159.772 278.881 168.531 282.639 177.965 280.266C178.301 280.181 178.231 279.666 177.874 279.723Z" fill="#FFD666"/>
<path d="M198.754 261.767C196.438 266.1 193.34 269.53 187.981 269.204C187.621 269.184 187.566 269.738 187.925 269.764C192.662 270.112 198.377 266.899 199.143 261.859C199.181 261.616 198.855 261.581 198.754 261.767Z" fill="#FFD666"/>
<path d="M188.22 258.335C184.793 263.479 180.273 267.48 174.046 268.697C173.651 268.774 173.75 269.391 174.147 269.317C180.131 268.16 185.952 264.118 188.675 258.589C188.811 258.317 188.383 258.09 188.22 258.335Z" fill="#FFD666"/>
<path d="M178.652 241.794C178.647 241.531 178.244 241.375 178.155 241.677C177.285 244.704 178.686 252.621 174.046 252.924C173.634 252.948 173.742 253.575 174.148 253.553C178.813 253.275 178.733 245.067 178.652 241.794Z" fill="#FFD666"/>
<path d="M172.396 227.455C172.395 227.183 171.975 227.135 171.974 227.413C171.953 232.016 171.645 236.73 172.008 241.323C172.024 241.526 172.347 241.508 172.361 241.305C172.727 236.738 172.417 232.04 172.396 227.455Z" fill="#FFD666"/>
<path d="M182.929 230.119C182.726 229.79 182.27 230.167 182.466 230.491C186.372 236.891 189.358 242.852 190.066 250.415C190.096 250.732 190.607 250.715 190.621 250.397C190.906 242.918 186.721 236.239 182.929 230.119Z" fill="#FFD666"/>
<path d="M193.386 235.326C193.073 235.119 192.73 235.577 193.039 235.791C197.116 238.625 198.941 243.68 197.218 248.346C197.1 248.672 197.571 248.952 197.762 248.646C200.586 244.142 197.351 237.945 193.386 235.326Z" fill="#FFD666"/>
<path d="M139.116 275.944C135.096 277.313 130.88 279.393 126.958 276.421C126.672 276.202 126.343 276.649 126.626 276.87C130.028 279.518 136.044 278.995 139.372 276.361C139.603 276.18 139.372 275.857 139.116 275.944Z" fill="#FFD666"/>
<path d="M108.229 219.132C104.86 218.129 101.13 217.281 97.6055 217.625C97.275 217.657 97.3613 218.161 97.6903 218.134C101.355 217.802 104.572 219.398 108.142 219.501C108.345 219.51 108.447 219.198 108.229 219.132Z" fill="#FFD666"/>
<path d="M173.154 45.959C172.101 54.0531 169.455 57.7119 164.878 59.8952C156.496 63.8947 149.202 64.968 140.118 65.4242C136.825 65.5895 131.021 63.9677 128.953 61.0255C126.492 57.532 128.381 52.7969 126.857 49.1089C132.053 49.1879 137.225 49.1528 142.458 48.6293C146.514 48.2213 150.645 48.1189 154.608 47.7694C160.143 47.2824 162.179 42.638 162.954 40.408C164.426 36.1745 165.115 32.2934 166.621 28.351C168.047 24.6147 176.988 22.6844 175.255 25.7655L173.154 45.959Z" fill="#FF85C0"/>
<path d="M140.445 34.2056L169.113 39.8035L175.578 5.23079L146.66 0L140.445 34.2056ZM147.954 3.68071C147.514 3.60321 147.219 3.18499 147.298 2.74336C147.377 2.3032 147.796 2.0078 148.238 2.08676C148.677 2.16719 148.971 2.58542 148.893 3.02558C148.814 3.46429 148.395 3.75968 147.954 3.68071ZM147.446 6.56443C147.004 6.48546 146.713 6.06577 146.79 5.62561C146.866 5.1869 147.289 4.89004 147.729 4.96901C148.168 5.04651 148.462 5.46768 148.384 5.91077C148.305 6.34801 147.886 6.64047 147.446 6.56443ZM146.937 9.44524C146.496 9.3692 146.203 8.94953 146.282 8.50937C146.358 8.06628 146.777 7.77234 147.219 7.85277C147.659 7.93027 147.952 8.34995 147.875 8.79011C147.796 9.2332 147.377 9.52567 146.937 9.44524ZM146.426 12.329C145.986 12.25 145.692 11.8303 145.77 11.3902C145.847 10.9486 146.268 10.6561 146.709 10.7351C147.15 10.8111 147.441 11.2308 147.362 11.6739C147.288 12.114 146.865 12.408 146.426 12.329ZM145.917 15.2098C145.479 15.1308 145.183 14.7112 145.261 14.271C145.341 13.8323 145.759 13.5383 146.201 13.6173C146.641 13.6919 146.935 14.116 146.856 14.5561C146.777 14.9934 146.36 15.2873 145.917 15.2098ZM145.41 18.0935C144.967 18.0146 144.674 17.5949 144.753 17.1547C144.831 16.7145 145.251 16.4206 145.691 16.4967C146.132 16.5786 146.425 16.9939 146.347 17.4355C146.268 17.8786 145.85 18.1681 145.41 18.0935ZM144.9 20.9729C144.457 20.8983 144.164 20.4772 144.242 20.0385C144.321 19.5954 144.739 19.3014 145.182 19.3804C145.622 19.4594 145.914 19.8791 145.836 20.3192C145.758 20.7594 145.34 21.0533 144.9 20.9729ZM144.392 23.8552C143.949 23.7791 143.657 23.3594 143.736 22.9193C143.813 22.4777 144.231 22.1866 144.674 22.2627C145.115 22.3402 145.407 22.7613 145.328 23.2C145.251 23.6417 144.831 23.937 144.392 23.8552ZM143.882 26.7389C143.44 26.6585 143.148 26.2403 143.225 25.8001C143.303 25.357 143.722 25.066 144.164 25.1435C144.603 25.221 144.898 25.6392 144.819 26.0823C144.74 26.5225 144.321 26.8164 143.882 26.7389ZM143.373 29.6212C142.931 29.5437 142.637 29.1225 142.716 28.6838C142.794 28.2436 143.215 27.9497 143.654 28.0258C144.095 28.1048 144.389 28.5244 144.312 28.9675C144.231 29.4077 143.812 29.6972 143.373 29.6212ZM142.206 31.5676C142.283 31.1259 142.706 30.8305 143.145 30.911C143.584 30.9899 143.876 31.4067 143.8 31.8498C143.721 32.2885 143.301 32.5824 142.861 32.5034C142.421 32.4245 142.13 32.0077 142.206 31.5676Z" fill="#6E80B4"/>
<path opacity="0.3" d="M150.425 33.5586C152.079 33.6683 154.183 34.3599 155.811 33.8744C157.203 33.4606 159.606 32.573 159.505 30.6909C159.396 28.7021 157.993 27.2296 156.792 25.7482C155.705 24.4087 153.508 21.7297 155.998 20.4399C156.998 19.9193 158.06 19.6707 159.139 19.3768C162.905 18.3649 165.736 15.8526 163.798 11.6381C161.717 7.11068 157.427 4.49013 153.791 1.28906L175.577 5.22861L169.112 39.8013L146.523 35.3894C147.478 34.2415 148.729 33.4474 150.425 33.5586Z" fill="#32436B"/>
<path d="M169.571 21.3053C169.776 20.2202 170.522 20.1515 171.248 20.4249C170.625 18.9918 169.748 17.5427 170.184 16.0131C170.549 14.7481 171.969 14.8403 172.879 15.3199C174.27 16.0555 175.504 17.8629 175.862 19.3706C176.22 20.8812 175.725 22.405 175.437 23.9273C175.409 24.5546 174.925 29.3336 174.827 29.917C174.834 30.2154 173.629 28.8641 172.019 27.861C171.861 27.7645 171.8 27.5319 171.826 27.3594C172.072 25.6192 170.387 25.2156 169.862 23.8688C169.529 23.0104 169.397 22.2178 169.571 21.3053Z" fill="#FF85C0"/>
<path d="M119.082 47.5929C119.082 47.5929 126.517 47.7363 132.745 47.2829C138.97 46.8281 143.389 45.9844 143.389 45.9844C143.389 45.9844 142.629 53.2844 141.919 59.8956C141.213 66.5098 142.915 66.985 141.919 68.8627C140.924 70.7418 126.509 68.8627 126.509 68.8627C126.509 68.8627 123.526 63.2809 123.153 58.793C122.78 54.3036 119.082 47.5929 119.082 47.5929Z" fill="#FFD666"/>
<path d="M125.832 50.4252C129.321 56.2366 131.19 112.086 131.19 112.086C131.19 112.086 121.205 109.713 111.276 109.614C101.351 109.514 86.8266 115.394 86.8266 115.394C86.8266 115.394 77.7148 66.1776 80.5181 53.5312C81.5461 48.8912 91.6363 49.1983 100.577 48.5315C105.455 48.1688 122.343 44.6153 125.832 50.4252Z" fill="#FFD666"/>
<path opacity="0.2" d="M92.9209 84.1004C100.231 94.9013 108.821 104.88 120.493 110.26C117.634 109.915 114.454 109.646 111.276 109.615C101.351 109.516 86.8273 115.396 86.8273 115.396C86.8273 115.396 79.9075 78.0142 79.985 60.0391C82.392 68.914 87.8202 76.5723 92.9209 84.1004Z" fill="#FF9C6E"/>
<path d="M127.546 108.401L120.426 58.7031L91.4668 61.3178L93.343 110.201C93.343 110.201 110.796 111.423 116.414 110.71C122.033 109.992 127.546 108.401 127.546 108.401Z" fill="#85A5FF"/>
<path d="M92.983 48.5234L96.3684 61.8673L93.0415 62.1159L89.0625 49.3438L92.983 48.5234Z" fill="#85A5FF"/>
<path d="M117.385 47.1641L116.772 60.3427L114.539 60.5079L112.473 47.2723L117.385 47.1641Z" fill="#85A5FF"/>
<path d="M70.8698 126.069C70.8698 126.069 60.5019 110.726 58.2645 98.755C56.2377 87.9176 61.7711 70.8989 67.7287 64.3578C71.7853 59.9152 73.4801 56.2886 79.8823 60.1595C86.3575 64.0668 69.7497 86.4129 69.0609 97.7972C68.7992 102.197 76.6592 123.286 76.6592 123.286L70.8698 126.069Z" fill="#FF85C0"/>
<path d="M81.1414 131.413C80.1617 132.65 76.5526 133.541 74.6472 132.752C73.2434 132.175 72.8163 130.824 72.4361 129.401C72.0617 127.975 70.4824 124.815 70.4824 124.815L76.3698 122.18C76.3698 122.18 76.7456 123.395 78.1875 124.066C79.6308 124.742 81.9165 125.129 82.228 125.158C83.4388 125.281 84.3761 126.536 83.3364 127.315C82.8846 127.653 79.7288 127.115 79.7288 127.115C79.7288 127.115 81.042 129.845 81.8902 129.73C82.8904 129.592 81.3637 131.128 81.1414 131.413Z" fill="#FF85C0"/>
<path d="M90.9962 55.0225C84.7082 71.2399 77.9317 82.5526 74.3636 81.564C71.1625 80.6793 65.8498 72.6335 64.1316 69.9428C63.0377 68.2231 61.2332 66.3776 61.726 64.5672C62.2335 62.7101 64.4854 60.869 65.7942 59.5353C69.5334 55.7361 75.0377 52.6184 80.1428 51.333C82.2778 50.7934 85.4379 50.1997 87.529 51.1868C88.832 51.7995 91.6397 54.4098 90.3572 55.9175" fill="#FFD666"/>
<path opacity="0.2" d="M61.726 64.568C62.2335 62.7108 64.4854 60.8697 65.7942 59.5361C69.5334 55.7369 75.0377 52.6192 80.1428 51.3338C80.6955 51.1934 81.3053 51.0545 81.9487 50.9375C77.1552 52.0518 73.1864 55.712 70.6449 60.2204C68.4908 64.0518 66.2973 69.0003 66.54 73.6082C65.6042 72.2906 64.7823 70.9599 64.1316 69.9436C63.0377 68.2239 61.2332 66.3784 61.726 64.568Z" fill="#FF9C6E"/>
<path d="M118.582 71.6063C119.154 79.2602 118.531 92.9039 107.781 92.6816C96.8003 92.4608 100.303 78.6563 97.6777 71.833C104.21 73.7443 112.607 69.2987 118.907 71.7964C118.373 71.6312 118.477 71.2188 118.189 70.9453" stroke="#32436B" stroke-width="0.25" stroke-miterlimit="10"/>
<path d="M109.223 51.4672L108.135 41.1986L96.5996 37.9609L97.0515 49.2137C97.0515 49.2137 97.1977 51.8196 101.202 53.1415C107.971 55.3643 109.223 51.4672 109.223 51.4672Z" fill="#FF85C0"/>
<path d="M108.92 48.6379C108.92 48.6379 102.962 47.9433 100.307 44.0929C98.6073 41.6333 98.7974 39.9062 98.7974 39.9062L108.05 43.1015C108.05 43.1015 108.45 43.3033 108.548 45.1502C108.684 47.6493 108.92 48.6379 108.92 48.6379Z" fill="#FF85C0"/>
<path d="M106.955 24.4926C109.41 27.1892 110.907 29.1561 112.808 34.0812C115.068 39.9262 113.434 43.2004 110.765 44.3161C108.996 45.0517 106.228 44.7577 103.404 43.7078C100.589 42.6549 98.0401 40.808 95.3611 36.9825C92.6762 33.1599 93.2144 26.5165 97.4552 23.8653C99.15 22.8036 104.245 21.5197 106.955 24.4926Z" fill="#FF85C0"/>
<path d="M83.0048 30.1071C83.2681 32.1631 84.5915 33.934 86.0787 35.4797C89.581 43.1116 97.2437 41.8628 97.2437 41.8628C97.2437 41.8628 97.5098 39.4573 97.58 38.7554C97.7453 37.1439 95.9963 35.275 96.0592 31.6908C96.1118 28.2689 98.5612 26.982 101.343 27.1166C106.866 27.3915 113.862 23.9886 113.248 18.6365C112.907 15.684 111.959 13.2243 109.507 11.7079C108.281 10.9489 105.444 8.26844 104.329 9.6445C103.631 10.5044 103.346 11.2619 103.542 12.4084C104.087 15.605 101.293 15.0654 99.3875 14.8051C96.922 14.4659 95.97 15.3316 94.8878 17.4417C94.009 19.1541 90.2113 17.7707 88.6173 18.5838C87.6112 19.0956 86.6549 19.6323 85.9047 20.5068C83.6351 23.1566 82.5603 26.6399 83.0048 30.1071Z" fill="#12121C"/>
<path d="M94.7356 39.5784C96.0268 40.681 98.3256 40.4603 98.7702 38.8838C98.9837 38.1147 98.3973 36.5061 97.8738 35.8086C96.856 34.4456 95.3717 34.0786 94.3115 35.3245C93.2484 36.5719 93.437 38.4729 94.7356 39.5784Z" fill="#FF85C0"/>
<path d="M103.911 33.9536C104.099 34.3367 103.937 34.8075 103.545 35.0035C103.153 35.1907 102.688 35.024 102.502 34.6306C102.308 34.2373 102.47 33.7737 102.861 33.5865C103.251 33.3964 103.719 33.5631 103.911 33.9536Z" fill="#12121C"/>
<path d="M109.741 30.2566C109.929 30.6456 109.764 31.1149 109.371 31.3051C108.983 31.4981 108.511 31.3328 108.328 30.9395C108.138 30.549 108.297 30.0826 108.691 29.8895C109.075 29.7038 109.548 29.8647 109.741 30.2566Z" fill="#12121C"/>
<path d="M107.703 39.5175C109.234 39.4678 111.466 38.9998 111.934 37.4688" stroke="#32436B" stroke-width="0.25" stroke-miterlimit="10"/>
<path d="M100.219 34.2879C100.605 33.3022 101.421 32.5257 102.466 32.1484" stroke="#32436B" stroke-width="0.25" stroke-miterlimit="10"/>
<path d="M107.008 29.5009C106.911 29.1529 107.774 28.8458 107.919 28.6133" stroke="#32436B" stroke-width="0.25" stroke-miterlimit="10"/>
<path d="M106.732 32.3242C107.785 33.6447 108.853 33.0861 110.049 33.7003C111.741 34.5645 109.954 35.4142 109.388 35.9567" stroke="#32436B" stroke-width="0.25" stroke-miterlimit="10"/>
<path d="M113.754 244.062L114.01 252.36C114.01 252.36 127.472 262.285 130.432 257.335C133.001 253.022 121.048 244.062 121.048 244.062H113.754Z" fill="#32436B"/>
<path d="M128.404 106.184C134.143 112.856 135.197 163.14 135.527 178.084C135.853 192.731 127.735 242.212 126.449 249.921C120.746 251.404 118.772 251.464 112.693 249.764C109.202 229.345 110.309 208.039 108.231 187.335C107.184 176.921 106.367 166.239 105.58 155.829C104.918 147.006 102.654 138.029 102.629 129.204C102.616 124.08 103.407 111.778 106.658 108.143C110.148 104.228 128.404 106.184 128.404 106.184Z" fill="#85A5FF"/>
<path opacity="0.3" d="M106.656 108.143C110.147 104.228 128.403 106.184 128.403 106.184C132.068 110.448 133.821 132.5 134.695 151.776C134.574 151.728 134.441 151.699 134.29 151.725C125.93 153.065 120.454 158.983 118.863 167.209C117.081 176.417 119.085 185.039 120.644 194.076C121.814 200.86 121.758 207.329 120.206 214.049C118.838 219.97 117.181 225.667 117.119 231.803C117.062 237.53 117.71 243.439 120.979 248.309C121.571 249.196 122.29 249.977 123.068 250.702C119.649 251.34 117.396 251.08 112.693 249.765C109.202 229.346 110.309 208.04 108.231 187.336C107.184 176.923 106.367 166.24 105.58 155.83C104.918 147.008 102.654 138.03 102.629 129.205C102.614 124.081 103.406 111.78 106.656 108.143Z" fill="#85A5FF"/>
<path d="M110.822 142.23C111.144 149.117 112.497 156.042 112.829 162.892C113.114 168.795 113.071 175.184 113.87 181.105C114.665 187.032 116.272 192.867 116.809 198.833C117.414 205.623 116.005 212.16 115.044 218.698C114.279 223.921 114.559 229.515 114.56 234.835C114.561 238.904 115.739 245.482 115.557 248.098" stroke="#32436B" stroke-width="0.25" stroke-miterlimit="10"/>
<path d="M75.4272 242.555L74.8086 250.35C74.8086 250.35 87.0528 261.954 90.5478 257.367C93.5807 253.366 82.676 243.372 82.676 243.372L75.4272 242.555Z" fill="#32436B"/>
<path d="M105.486 106.208C110.448 113.48 105.878 163.568 104.54 178.456C103.23 193.046 89.6389 241.311 87.5039 248.829C81.6692 249.668 79.6994 249.503 73.8486 247.135C72.6597 226.456 76.1357 205.407 76.3843 184.6C76.5042 174.135 76.8859 163.429 77.2675 152.997C77.5907 144.154 76.3433 134.984 77.3026 126.21C77.8598 121.112 80.0196 108.982 83.6579 105.728C87.5639 102.23 105.486 106.208 105.486 106.208Z" fill="#85A5FF"/>
<path opacity="0.3" d="M76.3852 184.604C76.5051 174.14 76.8868 163.434 77.2684 153.002C77.5916 144.159 76.3442 134.989 77.3035 126.215C77.8607 121.117 80.0206 108.987 83.6589 105.733C87.5633 102.234 105.486 106.213 105.486 106.213C108.465 110.579 108.005 130.392 106.875 148.749C106.872 148.749 106.872 148.749 106.871 148.752C106.764 148.783 106.656 148.838 106.559 148.935C106.493 149.001 106.423 149.064 106.356 149.129C106.344 149.135 106.331 149.144 106.321 149.156C106.227 149.207 106.125 149.249 106.031 149.302C105.802 149.23 105.546 149.248 105.316 149.436C101.883 152.253 97.3727 154.912 95.4921 159.136C93.1129 164.477 93.4507 170.695 93.9508 176.39C94.6118 183.927 95.9147 191.894 92.1229 198.843C89.1836 204.225 85.3142 208.974 82.7624 214.584C78.7966 223.304 75.5984 239.638 80.9404 249.219C78.9004 249.012 76.9014 248.38 73.848 247.143C72.6606 226.461 76.1366 205.411 76.3852 184.604Z" fill="#85A5FF"/>
<path d="M84.9196 119.07C84.5993 124.243 82.7099 129.223 82.6661 134.562C82.6076 141.349 82.2668 148.478 83.3651 155.189C84.9502 164.883 86.9274 174.598 87.9028 184.336C88.6866 192.182 85.9885 197.098 82.8664 204.006C80.7958 208.59 79.952 213.151 79.1843 217.907C77.5406 228.083 75.1219 239.207 77.9588 249.279C77.9427 248.805 77.9383 248.328 77.9442 247.853" stroke="#32436B" stroke-width="0.25" stroke-miterlimit="10"/>
<path d="M55.1834 157.875H49.0488V268.245H55.1834V157.875Z" fill="#12121C"/>
<path d="M167.794 157.875H161.658V268.245H167.794V157.875Z" fill="#12121C"/>
<path d="M182.592 153.93H34.252L43.5919 120.185L170.713 119.148L182.592 153.93Z" fill="#D8DFF4"/>
<path d="M182.59 153.93H34.252V161.832H182.59V153.93Z" fill="#6E80B4"/>
<path opacity="0.4" d="M147.079 148.128C147.839 146.732 149.303 144.937 147.344 144.559C146.297 144.352 145.241 144.219 144.181 144.148C138.884 143.779 133.546 144.042 128.25 144.25C121.58 144.516 114.893 144.876 108.219 144.69C103.535 144.562 98.1987 144.49 93.8482 142.503C91.722 141.529 89.1775 139.47 89.8428 136.797C90.5418 133.998 93.4943 132.13 95.837 130.813C105.44 125.417 116.677 122.605 127.29 119.98C127.953 119.82 128.618 119.654 129.284 119.488L43.5919 120.186L34.252 153.931H137.258C140.614 152.695 145.244 151.49 147.079 148.128Z" fill="#6E80B4"/>
<path d="M140.519 96.0547H61.6055V120.205H140.519V96.0547Z" fill="#12121C"/>
<path d="M58.7383 133.29L61.6045 120.203H140.518L143.31 133.29H58.7383Z" fill="#32436B"/>
<path d="M143.311 133.289H58.7383V141.338H143.311V133.289Z" fill="#12121C"/>
<path d="M67.4102 125.773H88.9109" stroke="#6E80B4" stroke-miterlimit="10"/>
<path d="M69.2033 125.772C69.2033 126.763 68.402 127.566 67.4105 127.566C66.422 127.566 65.6191 126.763 65.6191 125.772C65.6191 124.783 66.422 123.98 67.4105 123.98C68.402 123.98 69.2033 124.783 69.2033 125.772Z" fill="#12121C"/>
<path d="M134.741 96.0547H67.4102V120.205H134.741V96.0547Z" fill="#D8DFF4"/>
<path d="M65.6196 85.9609L61.6055 96.0511H140.519L136.931 85.9609H65.6196Z" fill="#32436B"/>
<path d="M69.203 85.9609L67.4102 96.0511H134.741L131.978 85.9609H69.203Z" fill="white"/>
<path d="M74.9355 81.3047V90.6213" stroke="#6E80B4" stroke-miterlimit="10"/>
<path d="M79.6035 81.3047V90.6213" stroke="#6E80B4" stroke-miterlimit="10"/>
<path d="M84.2773 81.3047V90.6213" stroke="#6E80B4" stroke-miterlimit="10"/>
<path d="M88.9453 81.3047V90.6213" stroke="#6E80B4" stroke-miterlimit="10"/>
<path d="M93.6133 81.3047V90.6213" stroke="#6E80B4" stroke-miterlimit="10"/>
<path d="M98.2812 81.3047V90.6213" stroke="#6E80B4" stroke-miterlimit="10"/>
<path d="M102.953 81.3047V90.6213" stroke="#6E80B4" stroke-miterlimit="10"/>
<path d="M107.621 81.3047V90.6213" stroke="#6E80B4" stroke-miterlimit="10"/>
<path d="M112.293 81.3047V90.6213" stroke="#6E80B4" stroke-miterlimit="10"/>
<path d="M116.963 81.3047V90.6213" stroke="#6E80B4" stroke-miterlimit="10"/>
<path d="M121.631 81.3047V90.6213" stroke="#6E80B4" stroke-miterlimit="10"/>
<path d="M126.301 81.3047V90.6213" stroke="#6E80B4" stroke-miterlimit="10"/>
<path d="M77.0203 111.254C77.0203 111.602 76.7381 111.889 76.3871 111.889C76.0376 111.889 75.7539 111.603 75.7539 111.254V102.727C75.7539 102.377 76.0362 102.094 76.3871 102.094C76.7366 102.094 77.0203 102.376 77.0203 102.727V111.254Z" fill="#32436B"/>
<path d="M81.4256 111.254C81.4256 111.602 81.1404 111.889 80.7924 111.889C80.4429 111.889 80.1562 111.603 80.1562 111.254V102.727C80.1562 102.377 80.4414 102.094 80.7924 102.094C81.139 102.094 81.4256 102.376 81.4256 102.727V111.254Z" fill="#32436B"/>
<path d="M85.8338 111.254C85.8338 111.602 85.5486 111.889 85.2006 111.889C84.8496 111.889 84.5645 111.603 84.5645 111.254V102.727C84.5645 102.377 84.8481 102.094 85.2006 102.094C85.5471 102.094 85.8338 102.376 85.8338 102.727V111.254Z" fill="#32436B"/>
<path d="M90.2351 111.254C90.2351 111.602 89.9529 111.889 89.602 111.889C89.2539 111.889 88.9688 111.603 88.9688 111.254V102.727C88.9688 102.377 89.2525 102.094 89.602 102.094C89.9515 102.094 90.2351 102.376 90.2351 102.727V111.254Z" fill="#32436B"/>
<path d="M94.6443 111.254C94.6443 111.602 94.3577 111.889 94.0111 111.889C93.6602 111.889 93.375 111.603 93.375 111.254V102.727C93.375 102.377 93.6587 102.094 94.0111 102.094C94.3562 102.094 94.6443 102.376 94.6443 102.727V111.254Z" fill="#32436B"/>
<path d="M99.0506 111.254C99.0506 111.602 98.7669 111.889 98.4174 111.889C98.0679 111.889 97.7812 111.603 97.7812 111.254V102.727C97.7812 102.377 98.0664 102.094 98.4174 102.094C98.7654 102.094 99.0506 102.376 99.0506 102.727V111.254Z" fill="#32436B"/>
<path d="M103.456 111.254C103.456 111.602 103.174 111.889 102.821 111.889C102.472 111.889 102.189 111.603 102.189 111.254V102.727C102.189 102.377 102.47 102.094 102.821 102.094C103.172 102.094 103.456 102.376 103.456 102.727V111.254Z" fill="#32436B"/>
<path d="M107.859 111.254C107.859 111.602 107.574 111.889 107.227 111.889C106.878 111.889 106.59 111.603 106.59 111.254V102.727C106.59 102.377 106.876 102.094 107.227 102.094C107.573 102.094 107.859 102.376 107.859 102.727V111.254Z" fill="#32436B"/>
<path d="M112.265 111.254C112.265 111.602 111.98 111.889 111.632 111.889C111.283 111.889 110.996 111.603 110.996 111.254V102.727C110.996 102.377 111.281 102.094 111.632 102.094C111.979 102.094 112.265 102.376 112.265 102.727V111.254Z" fill="#32436B"/>
<path d="M116.673 111.254C116.673 111.602 116.39 111.889 116.039 111.889C115.69 111.889 115.406 111.603 115.406 111.254V102.727C115.406 102.377 115.689 102.094 116.039 102.094C116.389 102.094 116.673 102.376 116.673 102.727V111.254Z" fill="#32436B"/>
<path d="M121.079 111.254C121.079 111.602 120.797 111.889 120.444 111.889C120.096 111.889 119.812 111.603 119.812 111.254V102.727C119.812 102.377 120.095 102.094 120.444 102.094C120.795 102.094 121.079 102.376 121.079 102.727V111.254Z" fill="#32436B"/>
<path d="M125.486 111.254C125.486 111.602 125.201 111.889 124.853 111.889C124.502 111.889 124.217 111.603 124.217 111.254V102.727C124.217 102.377 124.5 102.094 124.853 102.094C125.199 102.094 125.486 102.376 125.486 102.727V111.254Z" fill="#32436B"/>
<path opacity="0.3" d="M64.8114 132.636C69.7234 127.338 78.4448 126.095 85.2798 125.411C89.9827 124.94 94.6856 124.226 99.4001 123.9C104.262 123.558 109.066 124.005 113.931 124.128C123.016 124.359 132.048 123.843 140.703 121.054L140.52 120.203H61.6059L58.7383 133.29H64.244C64.4297 133.064 64.6213 132.842 64.8114 132.636Z" fill="#32436B"/>
<path opacity="0.4" d="M121.778 119.141C114.683 118.259 107.593 116.599 100.423 116.567C96.3143 116.546 91.3877 116.795 87.7859 114.473C86.2402 113.476 85.1683 111.168 86.1847 109.454C89.2073 104.351 98.7403 103.343 103.942 102.502C107.291 101.963 110.6 101.651 113.99 101.49C118.049 101.3 122.142 101.211 126.177 100.674C128.639 100.35 132.349 100.108 134.739 98.5553V96.0547H67.4082V120.205H126.782C125.133 119.775 123.477 119.351 121.778 119.141Z" fill="#D8DFF4"/>
<path d="M146.965 104.031H139.08V109.499H146.965V104.031Z" fill="#12121C"/>
<path d="M151.265 70.6641L143.023 104.033H146.966L154.133 70.6641H151.265Z" fill="#12121C"/>
<path d="M169.184 69.6797H151.266V78.0077H169.184V69.6797Z" fill="#12121C"/>
<path d="M58.7656 70.8359H47.6562V76.096H58.7656V70.8359Z" fill="#12121C"/>
<path d="M59.5719 71.6445H57.0625V101.092H59.5719V71.6445Z" fill="#12121C"/>
<path d="M63.333 98.5781H57.0625V101.089H63.333V98.5781Z" fill="#12121C"/>
</svg>
