<svg width="60" height="40" viewBox="0 0 60 40" fill="none" xmlns="http://www.w3.org/2000/svg">
<path d="M39.2 32C45.8275 32 51.2 26.6274 51.2 20C51.2 13.3726 45.8275 8 39.2 8C32.9802 8 27.8656 12.7321 27.26 18.7924C24.8084 17.6836 22.1597 17.0209 19.4472 16.8465C20.9595 7.29912 29.2274 0 39.2 0C50.2457 0 59.2 8.95431 59.2 20C59.2 30.6428 50.887 39.344 40.4 39.9646V40H27.2195V38.2545C27.2195 35.987 26.2843 33.7821 24.5705 32.1336C22.8517 30.4803 20.4908 29.5273 18 29.5273C15.5092 29.5273 13.1483 30.4803 11.4295 32.1336C9.71564 33.7821 8.78049 35.987 8.78049 38.2545V40H0V38.2118C0 33.5371 1.94004 29.0905 5.33341 25.8397C8.61822 22.693 13.0047 20.9102 17.571 20.8049C17.7138 20.8016 17.8568 20.8 18 20.8C18.1108 20.8 18.2215 20.801 18.3322 20.803C22.9332 20.8851 27.3586 22.6707 30.6666 25.8398C32.4991 27.5953 33.9077 29.6995 34.8159 32H39.2Z" fill="white"/>
<path d="M21.6769 34.9244C22.6521 35.7725 23.2 36.9227 23.2 38.122V40H12.8V38.122C12.8 36.9227 13.3478 35.7725 14.323 34.9244C15.2982 34.0764 16.6209 33.6 18 33.6C19.3791 33.6 20.7017 34.0764 21.6769 34.9244Z" fill="white"/>
<path d="M43.7818 18.0363C42.3358 18.0363 41.1636 16.8641 41.1636 15.4182V14.7636C41.1636 13.6791 40.2845 12.8 39.2 12.8C38.1155 12.8 37.2364 13.6791 37.2364 14.7636V15.4182C37.2364 16.8641 36.0642 18.0363 34.6182 18.0363H33.9636C32.8791 18.0363 32 18.9155 32 20C32 21.0845 32.8791 21.9636 33.9636 21.9636H34.6182C36.0642 21.9636 37.2364 23.1358 37.2364 24.5818V25.2364C37.2364 26.3208 38.1155 27.2 39.2 27.2C40.2845 27.2 41.1636 26.3208 41.1636 25.2364V24.5818C41.1636 23.1358 42.3358 21.9636 43.7818 21.9636H44.4363C45.5208 21.9636 46.4 21.0845 46.4 20C46.4 18.9155 45.5208 18.0363 44.4363 18.0363H43.7818Z" fill="white"/>
<path d="M11.2001 3.20005C11.2001 4.96733 12.6328 6.39999 14.4 6.39999H15.2C16.5255 6.39999 17.6 7.47451 17.6 8.79999C17.6 10.1255 16.5255 11.2 15.2 11.2H14.4C12.6328 11.2 11.2001 12.6326 11.2001 14.3999V15.2C11.2001 16.5255 10.1256 17.6 8.80011 17.6C7.47463 17.6 6.40011 16.5255 6.40011 15.2V14.4C6.40011 12.6327 4.96742 11.2 3.20011 11.2H2.4C1.07452 11.2 0 10.1255 0 8.79999C0 7.47451 1.07452 6.39999 2.4 6.39999H3.20012C4.96742 6.39999 6.40011 4.96731 6.40011 3.2V2.4C6.40011 1.07452 7.47463 0 8.80011 0C10.1256 0 11.2001 1.07452 11.2001 2.4V3.20005Z" fill="white"/>
</svg>
